<svg width="53" height="53" viewBox="0 0 53 53" fill="none" xmlns="http://www.w3.org/2000/svg">
<g clip-path="url(#clip0_733_4304)">
<path d="M25.5668 52.3898C24.9245 52.2147 24.57 50.9717 25.3416 50.4462C26.5386 49.6287 30.8054 51.0885 31.3142 49.537L30.9764 24.6621L20.1906 20.6163C19.7735 21.0918 22.6848 31.4021 23.1811 32.8703C24.0361 35.4061 25.5793 35.256 23.1978 38.43C20.5076 42.0128 14.7476 41.5915 12.9458 37.5083C11.6487 34.5678 13.0751 34.6429 13.7592 32.449C15.2106 27.7902 16.1824 22.977 17.6839 18.3349C17.8466 17.826 18.1636 17.63 18.6891 17.5883C20.4534 17.4423 27.0183 21.0501 29.5541 21.3879C30.8263 21.5589 32.3152 20.95 32.8199 21.0918C33.3621 21.2461 33.8001 22.585 34.6593 23.1439C37.6122 25.0583 46.346 26.0593 47.7557 28.9664C49.3698 32.2989 50.2332 38.9472 51.4719 42.8636C52.2561 45.3369 53.8577 45.3286 51.7931 48.511C49.3824 52.2313 44.0645 51.9269 41.6997 48.3191C39.9104 45.5872 41.9582 43.6185 42.7757 40.7991C43.1928 39.3685 45.8413 30.1884 45.5243 29.6921L33.9669 25.3461L33.6166 49.0907C34.3339 51.5265 39.1805 49.0031 40.4109 51.3304L39.7686 52.3982H25.571L25.5668 52.3898ZM21.4794 33.9255C21.054 31.6649 20.5576 29.3543 19.8736 27.1562C19.4857 25.9091 19.1229 23.8988 18.0426 23.1897L15.4567 33.9255H21.4794ZM43.8518 44.2317H49.8745L47.0717 33.4959C46.2876 33.2206 45.9664 35.4979 45.7871 36.0777C45.4284 37.2372 43.4264 43.8062 43.8476 44.2317H43.8518ZM21.909 36.0777C19.4774 35.2185 17.0541 35.744 14.5975 36.0777C15.4984 40.2318 21.3793 40.1609 21.909 36.0777ZM50.7379 46.3796H42.9926C43.8727 50.4629 49.8745 50.6005 50.7379 46.3796Z" fill="#D4AF37"/>
<path d="M42.993 23.8362C42.7594 24.5953 40.6615 25.2001 40.5655 23.3524C40.3403 19.1023 41.0535 16.85 39.4561 12.3414C35.5605 1.35534 20.583 -0.959478 12.2413 6.45629C6.60651 11.4655 9.28002 16.3037 7.30304 22.1345C6.23113 25.3002 3.52425 27.6859 2.98621 30.9183C11.6741 28.9246 5.12585 39.7355 7.39062 41.9836C8.64188 43.2265 15.5446 41.8459 18.0346 43.1639C20.5246 44.4819 18.264 48.6361 18.9647 49.7497L23.6361 50.2377V52.3856H17.3965C15.9242 50.6089 17.2964 47.6601 16.5623 45.4871C15.92 44.5653 7.73263 45.7248 5.68475 43.6769C3.5034 41.4997 5.58465 36.2903 5.07163 33.5543C3.32822 32.791 1.07179 33.4667 0.0207395 31.4772C-0.379662 29.9006 4.64204 23.1939 5.34274 21.0376C6.89429 16.2536 4.94234 12.2329 8.38746 7.32799C14.7605 -1.7436 30.9934 -2.56942 38.2507 5.80981C39.7564 7.54905 42.993 14.0139 42.993 16.1035C42.993 17.7384 43.3308 22.7434 42.993 23.832V23.8362Z" fill="#D4AF37"/>
</g>
<defs>
<clipPath id="clip0_733_4304">
<rect width="52.8029" height="52.39" fill="white"/>
</clipPath>
</defs>
</svg>
