<svg width="42" height="24" viewBox="0 0 42 24" fill="none" xmlns="http://www.w3.org/2000/svg">
<path d="M31.6881 8.6782C31.6881 8.6782 31.6863 8.67639 31.6826 8.67639H31.7043L35.0976 2.83709C35.2242 2.58942 35.2911 2.31282 35.2911 2.03442C35.2911 1.05819 34.5011 0.266357 33.523 0.266357C32.9463 0.266357 32.4058 0.54838 32.0767 1.02022L28.4466 7.03669L28.4502 7.04211C28.3779 7.01138 28.3074 6.98245 28.2333 6.95714C27.2318 6.57208 26.1941 6.26294 25.1238 6.03515C24.9394 5.99357 24.7514 5.95741 24.5616 5.92487C24.2814 5.87425 23.9975 5.82725 23.7119 5.78748C23.4263 5.7459 23.137 5.71336 22.8496 5.68624C22.8188 5.68443 22.7899 5.67901 22.7574 5.67901C22.6128 5.66454 22.4663 5.65189 22.3181 5.64285C22.0126 5.62116 21.7052 5.60669 21.3961 5.59946C21.2514 5.59404 21.1104 5.59223 20.9658 5.59223H20.8212C20.5536 5.59404 20.2897 5.59946 20.0275 5.61212C19.9534 5.61393 19.8757 5.61935 19.8016 5.62477C19.5214 5.63743 19.2393 5.65912 18.9627 5.68443C18.8037 5.69889 18.6482 5.71516 18.4927 5.73505C18.3372 5.75132 18.18 5.77301 18.0245 5.79471C17.5436 5.8616 17.0681 5.94657 16.5999 6.04781C16.2908 6.11289 15.9852 6.18701 15.6797 6.26836C15.3742 6.3461 15.0741 6.43106 14.7758 6.52869C14.6529 6.56665 14.5299 6.60643 14.4106 6.6462C14.1684 6.72755 13.9279 6.81433 13.6875 6.90291C13.6387 6.91918 13.5917 6.93726 13.5429 6.95534C13.4742 6.97884 13.4037 7.00776 13.335 7.03669L9.70483 1.02022C9.37581 0.546572 8.83526 0.266357 8.25857 0.266357C7.28234 0.266357 6.49051 1.05638 6.49051 2.03442C6.49051 2.31282 6.5574 2.58942 6.68395 2.83709L10.0772 8.6782C4.87069 11.9196 1.20079 17.4408 0.515625 23.9399H41.2443C40.5627 17.4408 36.8892 11.9178 31.6826 8.68001L31.6881 8.6782ZM13.4308 16.5748C13.1831 17.7499 12.1074 18.7008 11.03 18.7008C9.9525 18.7008 9.27638 17.7499 9.52044 16.5748C9.76811 15.3979 10.842 14.447 11.9212 14.447C13.0005 14.447 13.6748 15.3979 13.4308 16.5748ZM30.7805 18.7008C29.6995 18.7008 28.6563 17.7499 28.4448 16.5748C28.2333 15.3979 28.9402 14.447 30.0176 14.447C31.0951 14.447 32.1418 15.3979 32.3534 16.5748C32.5649 17.7499 31.8616 18.7008 30.7805 18.7008Z" fill="#E9E9E9"/>
</svg>
