<svg width="26" height="26" viewBox="0 0 26 26" fill="none" xmlns="http://www.w3.org/2000/svg">
<path d="M23.7368 0.766113H2.30594C1.27934 0.766113 0.449219 1.57659 0.449219 2.57862V24.0979C0.449219 25.0999 1.27934 25.9153 2.30594 25.9153H23.7368C24.7634 25.9153 25.5984 25.0999 25.5984 24.1028V2.57862C25.5984 1.57659 24.7634 0.766113 23.7368 0.766113ZM7.91048 22.197H4.17739V10.1922H7.91048V22.197ZM6.04393 8.55647C4.84542 8.55647 3.87776 7.58882 3.87776 6.39521C3.87776 5.20161 4.84542 4.23395 6.04393 4.23395C7.23754 4.23395 8.20519 5.20161 8.20519 6.39521C8.20519 7.5839 7.23754 8.55647 6.04393 8.55647ZM21.8801 22.197H18.1519V16.3616C18.1519 14.9715 18.1273 13.1786 16.2117 13.1786C14.2715 13.1786 13.9767 14.6964 13.9767 16.2633V22.197H10.2535V10.1922H13.8294V11.8327H13.8785C14.3746 10.8896 15.5928 9.89252 17.4053 9.89252C21.1826 9.89252 21.8801 12.378 21.8801 15.61V22.197V22.197Z" fill="#041B44"/>
</svg>
