<svg width="26" height="26" viewBox="0 0 26 26" fill="none" xmlns="http://www.w3.org/2000/svg">
<path d="M13.4262 0.766113C6.48146 0.766113 0.851562 6.39601 0.851562 13.3407C0.851562 19.2377 4.91165 24.1861 10.3886 25.5451V17.1835H7.79576V13.3407H10.3886V11.6849C10.3886 7.405 12.3256 5.42123 16.5276 5.42123C17.3243 5.42123 18.6989 5.57766 19.2613 5.73358V9.21675C18.9645 9.18556 18.449 9.16997 17.8087 9.16997C15.7469 9.16997 14.9502 9.9511 14.9502 11.9817V13.3407H19.0576L18.3519 17.1835H14.9502V25.8233C21.1766 25.0713 26.0013 19.7699 26.0013 13.3407C26.0008 6.39601 20.3709 0.766113 13.4262 0.766113Z" fill="#041B44"/>
</svg>
