<svg width="43" height="46" viewBox="0 0 43 46" fill="none" xmlns="http://www.w3.org/2000/svg">
<g clip-path="url(#clip0_733_4289)">
<path d="M42.2521 8.6487C43.0284 21.4172 37.4333 33.8443 27.29 41.5975C25.7181 42.799 22.2747 45.4757 20.3324 44.9571C19.4466 44.722 16.4735 42.7217 15.578 42.0678C5.15771 34.4434 -0.807805 21.5654 0.0908865 8.6487C7.94397 7.9626 15.1013 4.94764 21.1699 0C27.1773 4.99595 34.4377 7.93361 42.2521 8.6487ZM21.1699 2.7766C15.6038 6.75146 9.26141 9.62792 2.38432 10.4429C1.60803 10.9872 2.58403 17.4488 2.81917 18.6567C4.80982 28.8709 12.009 38.1896 21.1699 43.0019C33.001 36.7143 40.5385 24.0199 40.1326 10.5975C33.1975 9.52485 26.8262 6.96083 21.1699 2.77338V2.7766Z" fill="#D4AF37"/>
</g>
<defs>
<clipPath id="clip0_733_4289">
<rect width="42.3223" height="45.0248" fill="white"/>
</clipPath>
</defs>
</svg>
