<svg width="26" height="26" viewBox="0 0 26 26" fill="none" xmlns="http://www.w3.org/2000/svg">
<g clip-path="url(#clip0_1063_1899)">
<path d="M12.5746 0C5.6299 0 0 5.6299 0 12.5746C0 18.4716 4.06009 23.4199 9.53708 24.779V16.4174H6.9442V12.5746H9.53708V10.9188C9.53708 6.63889 11.4741 4.65512 15.676 4.65512C16.4727 4.65512 17.8474 4.81155 18.4097 4.96747V8.45063C18.113 8.41945 17.5974 8.40386 16.9571 8.40386C14.8954 8.40386 14.0986 9.18499 14.0986 11.2155V12.5746H18.206L17.5003 16.4174H14.0986V25.0572C20.3251 24.3052 25.1497 19.0037 25.1497 12.5746C25.1492 5.6299 19.5193 0 12.5746 0Z" fill="#E9E9E9"/>
</g>
<defs>
<clipPath id="clip0_1063_1899">
<rect width="25.1492" height="25.1492" fill="white"/>
</clipPath>
</defs>
</svg>
