<svg width="26" height="26" viewBox="0 0 26 26" fill="none" xmlns="http://www.w3.org/2000/svg">
<g clip-path="url(#clip0_733_1605)">
<path d="M12.7142 0.766113C5.76955 0.766113 0.139648 6.39601 0.139648 13.3407C0.139648 19.2377 4.19974 24.1861 9.67673 25.5451V17.1835H7.08385V13.3407H9.67673V11.6849C9.67673 7.405 11.6137 5.42123 15.8156 5.42123C16.6124 5.42123 17.987 5.57766 18.5494 5.73358V9.21675C18.2526 9.18556 17.737 9.16997 17.0967 9.16997C15.035 9.16997 14.2383 9.9511 14.2383 11.9817V13.3407H18.3457L17.64 17.1835H14.2383V25.8233C20.4647 25.0713 25.2894 19.7699 25.2894 13.3407C25.2889 6.39601 19.659 0.766113 12.7142 0.766113Z" fill="#E9E9E9"/>
</g>
<defs>
<clipPath id="clip0_733_1605">
<rect width="25.1492" height="25.1492" fill="white" transform="translate(0.139648 0.766113)"/>
</clipPath>
</defs>
</svg>
