<svg width="26" height="26" viewBox="0 0 26 26" fill="none" xmlns="http://www.w3.org/2000/svg">
<g clip-path="url(#clip0_733_1606)">
<path d="M13.0126 3.03052C16.3724 3.03052 16.7702 3.04526 18.0916 3.1042C19.3195 3.15823 19.9827 3.36454 20.4247 3.53646C21.0093 3.76241 21.4317 4.03747 21.8688 4.47464C22.3109 4.91671 22.5811 5.33423 22.807 5.91875C22.9789 6.36083 23.1852 7.02885 23.2393 8.25193C23.2982 9.57816 23.313 9.97603 23.313 13.3309C23.313 16.6907 23.2982 17.0885 23.2393 18.4099C23.1852 19.6378 22.9789 20.301 22.807 20.743C22.5811 21.3276 22.306 21.75 21.8688 22.1871C21.4268 22.6292 21.0093 22.8994 20.4247 23.1253C19.9827 23.2972 19.3146 23.5035 18.0916 23.5576C16.7653 23.6165 16.3675 23.6313 13.0126 23.6313C9.65281 23.6313 9.25495 23.6165 7.93363 23.5576C6.70564 23.5035 6.04253 23.2972 5.60045 23.1253C5.01593 22.8994 4.5935 22.6243 4.15634 22.1871C3.71426 21.7451 3.4441 21.3276 3.21815 20.743C3.04624 20.301 2.83993 19.6329 2.7859 18.4099C2.72696 17.0836 2.71222 16.6858 2.71222 13.3309C2.71222 9.97111 2.72696 9.57325 2.7859 8.25193C2.83993 7.02394 3.04624 6.36083 3.21815 5.91875C3.4441 5.33423 3.71917 4.9118 4.15634 4.47464C4.59841 4.03256 5.01593 3.76241 5.60045 3.53646C6.04253 3.36454 6.71055 3.15823 7.93363 3.1042C9.25495 3.04526 9.65281 3.03052 13.0126 3.03052ZM13.0126 0.766113C9.59878 0.766113 9.17144 0.780849 7.83048 0.839793C6.49443 0.898736 5.57589 1.11486 4.78016 1.42431C3.95004 1.7485 3.24763 2.17584 2.55013 2.87825C1.84772 3.57575 1.42038 4.27816 1.09619 5.10337C0.786737 5.90402 0.570611 6.81764 0.511668 8.15369C0.452724 9.49957 0.437988 9.92691 0.437988 13.3407C0.437988 16.7545 0.452724 17.1819 0.511668 18.5228C0.570611 19.8589 0.786737 20.7774 1.09619 21.5731C1.42038 22.4033 1.84772 23.1057 2.55013 23.8032C3.24763 24.5007 3.95004 24.9329 4.77524 25.2522C5.57589 25.5617 6.48951 25.7778 7.82557 25.8367C9.16653 25.8957 9.59387 25.9104 13.0077 25.9104C16.4215 25.9104 16.8488 25.8957 18.1898 25.8367C19.5258 25.7778 20.4444 25.5617 21.2401 25.2522C22.0653 24.9329 22.7677 24.5007 23.4652 23.8032C24.1627 23.1057 24.595 22.4033 24.9143 21.5781C25.2237 20.7774 25.4398 19.8638 25.4988 18.5277C25.5577 17.1868 25.5725 16.7594 25.5725 13.3456C25.5725 9.93182 25.5577 9.50448 25.4988 8.16352C25.4398 6.82746 25.2237 5.90893 24.9143 5.11319C24.6048 4.27816 24.1775 3.57575 23.4751 2.87825C22.7776 2.18076 22.0751 1.7485 21.2499 1.42923C20.4493 1.11977 19.5357 0.903648 18.1996 0.844705C16.8537 0.780849 16.4264 0.766113 13.0126 0.766113Z" fill="#E9E9E9"/>
<path d="M13.0124 6.88159C9.44636 6.88159 6.55322 9.77473 6.55322 13.3408C6.55322 16.9069 9.44636 19.8 13.0124 19.8C16.5785 19.8 19.4717 16.9069 19.4717 13.3408C19.4717 9.77473 16.5785 6.88159 13.0124 6.88159ZM13.0124 17.5307C10.6989 17.5307 8.82255 15.6543 8.82255 13.3408C8.82255 11.0273 10.6989 9.15091 13.0124 9.15091C15.326 9.15091 17.2023 11.0273 17.2023 13.3408C17.2023 15.6543 15.326 17.5307 13.0124 17.5307Z" fill="#E9E9E9"/>
<path d="M21.2352 6.62614C21.2352 7.46117 20.5573 8.13411 19.7272 8.13411C18.8922 8.13411 18.2192 7.45626 18.2192 6.62614C18.2192 5.7911 18.8971 5.11816 19.7272 5.11816C20.5573 5.11816 21.2352 5.79601 21.2352 6.62614Z" fill="#E9E9E9"/>
</g>
<defs>
<clipPath id="clip0_733_1606">
<rect width="25.1492" height="25.1492" fill="white" transform="translate(0.437988 0.766113)"/>
</clipPath>
</defs>
</svg>
