<svg width="26" height="26" viewBox="0 0 26 26" fill="none" xmlns="http://www.w3.org/2000/svg">
<g clip-path="url(#clip0_1063_1900)">
<path d="M12.8734 2.26441C16.2332 2.26441 16.6311 2.27915 17.9524 2.33809C19.1804 2.39212 19.8435 2.59842 20.2856 2.77034C20.8701 2.99629 21.2925 3.27136 21.7297 3.70852C22.1718 4.1506 22.4419 4.56812 22.6679 5.15264C22.8398 5.59472 23.0461 6.26274 23.1001 7.48582C23.1591 8.81204 23.1738 9.20991 23.1738 12.5648C23.1738 15.9246 23.1591 16.3224 23.1001 17.6437C23.0461 18.8717 22.8398 19.5348 22.6679 19.9769C22.4419 20.5614 22.1668 20.9839 21.7297 21.421C21.2876 21.8631 20.8701 22.1333 20.2856 22.3592C19.8435 22.5311 19.1755 22.7374 17.9524 22.7915C16.6262 22.8504 16.2283 22.8651 12.8734 22.8651C9.51365 22.8651 9.11579 22.8504 7.79447 22.7915C6.56648 22.7374 5.90337 22.5311 5.46129 22.3592C4.87677 22.1333 4.45434 21.8582 4.01718 21.421C3.5751 20.979 3.30494 20.5614 3.07899 19.9769C2.90708 19.5348 2.70077 18.8668 2.64674 17.6437C2.5878 16.3175 2.57306 15.9196 2.57306 12.5648C2.57306 9.205 2.5878 8.80713 2.64674 7.48582C2.70077 6.25783 2.90708 5.59472 3.07899 5.15264C3.30494 4.56812 3.58001 4.14569 4.01718 3.70852C4.45925 3.26645 4.87677 2.99629 5.46129 2.77034C5.90337 2.59842 6.57139 2.39212 7.79447 2.33809C9.11579 2.27915 9.51365 2.26441 12.8734 2.26441ZM12.8734 0C9.45962 0 9.03228 0.0147359 7.69132 0.0736793C6.35527 0.132623 5.43673 0.348749 4.641 0.658202C3.81087 0.982391 3.10847 1.40973 2.41097 2.11214C1.70856 2.80964 1.28122 3.51205 0.95703 4.33726C0.647577 5.1379 0.431451 6.05153 0.372507 7.38758C0.313564 8.73345 0.298828 9.16079 0.298828 12.5746C0.298828 15.9884 0.313564 16.4157 0.372507 17.7567C0.431451 19.0928 0.647577 20.0113 0.95703 20.807C1.28122 21.6372 1.70856 22.3396 2.41097 23.0371C3.10847 23.7346 3.81088 24.1668 4.63608 24.4861C5.43673 24.7955 6.35035 25.0117 7.68641 25.0706C9.02737 25.1296 9.45471 25.1443 12.8685 25.1443C16.2823 25.1443 16.7097 25.1296 18.0506 25.0706C19.3867 25.0117 20.3052 24.7955 21.101 24.4861C21.9262 24.1668 22.6286 23.7346 23.3261 23.0371C24.0236 22.3396 24.4558 21.6372 24.7751 20.8119C25.0845 20.0113 25.3007 19.0977 25.3596 17.7616C25.4186 16.4207 25.4333 15.9933 25.4333 12.5795C25.4333 9.16571 25.4186 8.73837 25.3596 7.3974C25.3007 6.06135 25.0845 5.14282 24.7751 4.34708C24.4656 3.51205 24.0383 2.80964 23.3359 2.11214C22.6384 1.41464 21.936 0.982391 21.1108 0.663114C20.3101 0.353661 19.3965 0.137535 18.0605 0.0785913C16.7146 0.0147359 16.2872 0 12.8734 0Z" fill="#E9E9E9"/>
<path d="M12.8733 6.11548C9.3072 6.11548 6.41406 9.00862 6.41406 12.5747C6.41406 16.1408 9.3072 19.0339 12.8733 19.0339C16.4394 19.0339 19.3325 16.1408 19.3325 12.5747C19.3325 9.00862 16.4394 6.11548 12.8733 6.11548ZM12.8733 16.7646C10.5598 16.7646 8.68338 14.8882 8.68338 12.5747C8.68338 10.2612 10.5598 8.3848 12.8733 8.3848C15.1868 8.3848 17.0632 10.2612 17.0632 12.5747C17.0632 14.8882 15.1868 16.7646 12.8733 16.7646Z" fill="#E9E9E9"/>
<path d="M21.096 5.86002C21.096 6.69506 20.4182 7.36799 19.588 7.36799C18.753 7.36799 18.0801 6.69014 18.0801 5.86002C18.0801 5.02499 18.7579 4.35205 19.588 4.35205C20.4182 4.35205 21.096 5.0299 21.096 5.86002Z" fill="#E9E9E9"/>
</g>
<defs>
<clipPath id="clip0_1063_1900">
<rect width="25.1492" height="25.1492" fill="white" transform="translate(0.298828)"/>
</clipPath>
</defs>
</svg>
