<svg width="58" height="38" viewBox="0 0 58 38" fill="none" xmlns="http://www.w3.org/2000/svg">
<g clip-path="url(#clip0_733_4281)">
<path d="M51.8216 1.61995C52.5736 2.26132 56.3186 7.18583 56.6024 8.04098C57.4539 10.6175 56.8973 12.1951 55.3639 14.1929C54.4645 15.3688 49.5474 19.9394 49.3409 20.7319C48.9723 22.1474 51.9322 23.3564 50.3804 26.2978C49.8275 27.3446 48.5669 27.6285 47.9661 28.4394C47.2878 29.3498 47.2141 30.9569 46.4179 31.8268C45.4633 32.87 43.9594 32.7115 42.9973 33.3455C42.2343 33.8504 41.851 35.1516 40.911 35.8151C37.6637 38.1004 36.3662 34.8641 35.4041 34.9452C32.7391 38.9629 29.1637 37.1494 26.2849 34.4881C25.0317 34.4881 24.1876 37.8498 20.5901 37.1494C19.3368 36.9061 18.7839 35.2253 17.844 34.9562C16.4654 34.5618 14.7772 35.2732 13.347 34.1343C12.8236 33.7177 12.584 32.6746 12.0311 32.4092C10.542 31.6978 8.4557 32.7151 7.13242 30.0907C6.50212 28.8411 6.90021 27.7169 6.4542 26.6222C6.00819 25.5274 3.86293 25.7117 4.00669 22.5418C4.12095 20.0131 6.46157 19.4234 7.08451 17.4366C5.27099 16.6699 0.976785 13.1424 0.980471 11.1667C0.984157 9.38638 6.69747 2.96166 8.25666 2.08808C11.8321 0.082885 14.2464 3.51825 17.5307 3.40398C19.6833 3.33026 22.3962 1.26609 24.4309 1.12234C26.2186 0.997016 27.8368 2.44193 29.0126 2.54145C29.6503 2.59675 30.6234 1.82637 31.3974 1.65681C35.2899 0.805343 37.4351 4.14487 40.7341 4.17804C44.8661 4.22228 47.6233 -1.95179 51.8253 1.61995H51.8216ZM48.4231 2.69258C46.3958 3.13122 43.8783 6.21272 41.0511 6.29013C38.1981 6.37122 34.5084 2.99115 32.083 3.45559C30.7376 3.71361 24.8142 7.85668 25.0022 9.17628C25.5183 12.7812 29.654 9.4343 31.3163 9.16522C34.0993 8.71184 36.4804 10.7539 38.6073 12.3315C41.3165 14.3367 43.9815 16.9943 46.628 19.1359C47.0261 19.3865 47.4279 19.3902 47.8702 19.2686C48.9244 18.9774 53.6093 12.5637 55.0063 11.5685C56.3628 9.47484 52.8832 5.68931 51.3793 4.14118C50.4136 3.14965 50.0155 2.34978 48.4194 2.69258H48.4231ZM37.5052 19.7035C39.4403 17.7721 47.074 31.1412 48.8286 24.5027C48.7254 23.4338 42.367 17.7204 41.1027 16.6773C39.3666 15.2471 33.7233 10.6949 31.7034 11.0377C30.428 11.2552 29.0531 12.7738 27.4202 12.8918C24.1692 13.1277 21.6369 9.33846 23.8043 6.59975C24.5378 5.67457 28.3122 3.99374 25.2639 3.25654C23.3251 2.78842 20.2878 5.16221 17.9324 5.29859C14.8436 5.47552 11.751 2.91374 9.73106 3.54774C9.0086 3.77627 3.22894 10.2231 3.07044 10.9382C2.76819 12.3168 7.18771 15.2398 8.21611 16.1428L8.73953 16.2239C11.5188 13.817 13.1148 13.5958 15.625 16.3087C15.9678 16.6773 16.0047 17.3998 16.3106 17.702C16.6755 18.0669 17.8329 18.3102 18.4706 18.7747C20.708 20.4076 19.886 21.071 20.8186 22.8772C21.8728 24.9192 24.4051 26.6148 26.0748 27.8754C28.8799 29.9949 27.0774 31.8526 28.198 33.3455C29.536 35.1295 32.8129 36.8693 33.3584 33.5445C33.4026 31.6683 30.3985 31.0528 30.0484 29.582L30.8961 28.4504C32.2268 28.2145 39.2597 37.7945 40.3876 33.3823C41.1175 30.5293 35.1867 27.5953 33.7049 25.1994C34.42 24.3774 34.7701 23.9129 35.8059 24.6059C37.7816 25.9292 40.2181 29.442 42.4481 30.8832C43.4396 31.5393 45.1647 30.7026 45.4301 29.6668C45.9682 27.5621 39.0054 23.3674 37.859 21.4175C37.5052 20.813 37.3946 20.3965 37.5015 19.6925L37.5052 19.7035ZM11.9169 16.3419C11.1317 16.5446 5.717 22.1326 5.99713 23.2274C7.19509 27.9086 14.3423 19.3681 14.228 18.0559C14.1506 17.1639 12.8568 16.0986 11.9169 16.3382V16.3419ZM16.1042 20.1348C15.6361 20.2638 9.63154 26.2536 9.19659 26.9281C8.60683 27.8459 8.21611 28.7232 9.1413 29.6005C9.81953 30.1239 10.8885 30.0944 11.6404 29.7479C12.0422 29.5636 17.538 24.0383 17.8993 23.478C19.0567 21.6792 17.9214 19.6298 16.1005 20.1348H16.1042ZM19.5027 25.0925C18.5996 25.1773 14.4639 29.4051 14.1285 30.345C13.5424 31.9816 15.2527 33.4081 16.5797 32.8036C16.8856 32.6635 21.1982 28.3472 21.342 28.0413C21.6369 27.4036 21.6774 26.7844 21.3494 26.1504C20.9402 25.6564 20.1662 25.0298 19.5027 25.0925ZM23.3288 29.2429C22.0939 29.5784 17.538 34.278 21.0508 35.2069C22.8312 35.6787 27.0037 31.425 25.345 29.7516C24.9248 29.3277 23.9333 29.0807 23.3324 29.2466L23.3288 29.2429Z" fill="#D4AF37"/>
</g>
<defs>
<clipPath id="clip0_733_4281">
<rect width="58" height="38" fill="white"/>
</clipPath>
</defs>
</svg>
