<svg width="30" height="38" viewBox="0 0 30 38" fill="none" xmlns="http://www.w3.org/2000/svg">
<path d="M24.9988 20.2615C25.0494 25.77 29.8311 27.6031 29.8835 27.6266C29.8438 27.755 29.1188 30.2389 27.3634 32.8043C25.8467 35.0225 24.272 37.2316 21.7917 37.2768C19.3529 37.322 18.5719 35.8324 15.7843 35.8324C12.9966 35.8324 12.1288 37.2316 9.82022 37.3238C7.42665 37.416 5.60255 34.9267 4.07313 32.7175C0.949193 28.1961 -1.43895 19.947 1.76814 14.377C3.36084 11.6129 6.20818 9.86106 9.29957 9.81406C11.6516 9.77067 13.868 11.3959 15.307 11.3959C16.746 11.3959 19.4397 9.43984 22.2744 9.72728C23.4603 9.7761 26.7922 10.2064 28.9308 13.3375C28.7591 13.4442 24.9572 15.6588 24.9988 20.2633M20.4177 6.73713C21.6886 5.19866 22.5437 3.05819 22.3105 0.926758C20.4792 0.999071 18.2628 2.14885 16.9485 3.68551C15.7716 5.04681 14.7393 7.22705 15.0177 9.3151C17.0606 9.47238 19.1486 8.2774 20.4195 6.73894" fill="#E9E9E9"/>
</svg>
