<svg width="144" height="144" viewBox="0 0 144 144" fill="none" xmlns="http://www.w3.org/2000/svg">
<circle cx="72" cy="72" r="72" fill="#041B44"/>
<g clip-path="url(#clip0_40_24780)">
<path d="M80.6838 62.2893H99.5913C100.716 68.9291 99.4789 76.2795 96.3915 82.2855C94.5156 85.9352 90.9171 88.9305 90.4519 93.1731C89.8948 98.2897 92.3585 101.996 93.7489 106.642L91.9394 107.639C90.5593 103.647 87.6866 98.99 87.8246 94.6758C87.9984 89.2883 90.7944 87.1824 93.161 83.1392C96.4938 77.4347 98.2828 71.5309 98.0579 64.8399H80.6838V67.3906H85.2842V76.5606H54.3697L53.603 75.7939V68.1522L54.4464 67.4673L58.234 67.1657L58.7145 64.8399H50.5412C50.5974 66.3274 49.9176 67.6359 50.0045 69.154C50.0965 70.7693 51.1904 71.904 50.9655 73.6471C50.9399 73.8515 49.2071 76.8673 49.0027 77.2047C48.2564 78.4315 46.2475 79.6684 46.4418 81.3859C46.5747 82.9551 48.4353 82.7762 48.8033 84.1615C49.4014 86.4259 47.3107 88.997 51.0524 89.3036C51.3028 90.6429 50.4134 91.3022 49.524 92.0996C52.55 93.3673 49.7796 95.8566 50.1272 98.0801C50.9246 103.233 59.517 101.014 63.2484 101.592L64.8535 106.611L62.3028 107.639L61.2958 103.8C60.1151 103.023 54.5231 103.923 52.4427 103.457C51.6811 103.289 48.3279 100.835 48.1388 100.375C47.4334 98.6679 48.4404 95.964 48.2155 94.3283C48.0161 92.851 46.4571 92.1712 46.4418 92.0179C46.2629 90.2595 46.8507 87.0444 46.4418 85.0662C46.3702 84.7391 43.8809 83.3334 43.8502 81.4115C43.8247 79.9598 47.1472 75.1499 48.1848 73.6726C48.3893 73.3864 48.972 73.5193 48.9975 73.4835C49.1151 73.3097 48.1235 72.451 47.9957 71.6996C47.6277 69.5936 47.7299 62.78 50.2754 62.274C51.7066 61.9928 58.8577 62.6164 59.2052 62.2637C59.195 58.9412 61.623 56.9222 64.1685 55.2303C65.6253 54.2642 68.4366 54.0393 66.5556 51.0491C62.0217 49.9859 61.6792 52.7921 58.8321 54.622C56.4808 56.1299 52.4785 57.3873 50.9092 54.0137C48.1695 48.1099 56.8079 43.1364 57.6207 37.892C56.4859 37.6364 54.518 36.0059 55.1978 34.8302C62.7475 31.1141 72.3367 30.4036 77.8265 37.8716C78.4194 38.6792 80.6838 43.3562 80.6838 43.6885V62.2893ZM61.5259 67.3855H78.1332V43.1824C78.1332 42.4822 76.4106 39.4715 75.8637 38.8274C71.248 33.3785 65.6253 34.2935 59.2257 35.2851C59.0263 36.4659 60.3298 36.7317 60.662 37.6824C61.3112 39.543 60.0946 39.175 59.7522 39.7271C57.5593 43.254 55.1723 46.6685 52.6012 49.9092L52.6523 53.0374C56.813 55.2047 58.4385 51.4069 61.3776 49.3827C63.55 48.4626 66.4994 49.5361 68.5644 48.9278C70.3075 48.4166 69.9905 45.636 72.5003 46.4896C73.7015 49.2038 69.5612 50.3181 69.4232 50.9213C69.2289 51.7647 69.597 52.9097 69.4232 53.8655C69.0296 56.0532 65.8195 56.6104 64.1378 57.786C61.4492 59.6671 60.1611 63.3218 60.8307 66.5318L61.5156 67.3752L61.5259 67.3855ZM56.1588 74.5211H82.4729C83.6792 73.4273 83.6792 70.5188 82.4729 69.425H56.1588V74.5211Z" fill="white"/>
<path d="M89.2452 52.2248C89.4905 52.4344 90.2522 54.5965 90.2624 54.9901C90.4004 59.0742 83.0756 60.1528 83.2289 54.8879C83.3209 51.7443 87.4664 50.6811 89.2452 52.2197V52.2248Z" fill="white"/>
<path d="M87.8395 50.0627L85.3553 49.2245C85.064 43.7551 84.2972 36.507 91.4125 35.7965L91.4431 37.514C90.6202 37.8769 87.8395 39.6813 87.8395 40.6371V50.0627Z" fill="white"/>
<path d="M95.0675 34.6821L96.2483 34.7843C96.4834 34.723 96.5907 33.4707 97.9044 33.3326C101.728 32.9442 97.6181 35.7811 97.6386 36.6398L99.5912 40.3763L97.5517 40.6728L96.2738 38.8582C94.7301 39.7425 94.5563 41.3219 92.4402 40.3814C91.929 38.8429 93.9378 38.2346 93.9685 37.0896C94.0043 35.7913 92.067 34.7945 92.4402 33.256L93.989 32.9697L95.0726 34.6872L95.0675 34.6821Z" fill="white"/>
</g>
<defs>
<clipPath id="clip0_40_24780">
<rect width="56.15" height="75.5278" fill="white" transform="translate(43.8496 32.1162)"/>
</clipPath>
</defs>
</svg>
