<svg width="144" height="144" viewBox="0 0 144 144" fill="none" xmlns="http://www.w3.org/2000/svg">
<circle cx="72" cy="72" r="72" fill="#041B44"/>
<g clip-path="url(#clip0_40_24791)">
<path d="M40.7239 90.3168C40.81 90.156 40.5632 89.4327 40.8847 88.7725C41.3038 87.9113 45.0641 85.6838 45.3225 84.3232C45.0871 81.3895 45.6555 78.0425 45.2823 75.1835C45.0297 73.2602 43.6002 70.6423 43.5715 68.2541C43.537 65.418 45.0469 62.714 45.3282 60.2913C46.2812 52.0644 44.5819 42.0808 45.311 33.6587H104.995V110.066L104.133 110.927H46.752C46.5625 110.927 45.8794 110.169 45.3167 110.353V97.7629C41.763 99.6746 36.8889 107.976 33.6912 109.348C29.5863 111.111 26.2336 106.742 28.3118 103.114L39.5987 90.644C39.8685 90.2766 40.5861 90.4316 40.7239 90.3225C38.1921 94.8866 31.0044 99.956 29.5576 103.51C27.7148 108.045 31.5842 110.043 35.0231 107.247L49.8694 90.5407L45.6038 86.5105C44.1628 86.5105 42.7046 89.4671 41.7171 90.1733C41.3095 90.4603 40.7928 90.2709 40.7297 90.3283L40.7239 90.3168ZM83.7701 80.5915C83.1902 82.4229 83.3739 82.4631 81.5885 84.0131C77.1449 87.8826 72.2708 89.3351 66.5528 90.3168V103.481L69.3659 103.424L69.4175 99.4737L73.7635 100.013L74.0161 103.487H76.3067V93.1816L80.8996 92.6075V103.481H83.7701V88.6002H88.3629V103.481H90.6593V83.4505C91.5319 83.0027 95.8262 82.331 95.8262 83.7376V103.481L98.1169 104.061V104.623H51.6376V103.481H55.0822V92.6075L59.675 93.1816V103.481H62.5455V90.6038C62.5455 88.9849 57.9814 88.8701 57.2466 88.5543C56.7414 88.3419 56.7471 87.6817 56.351 87.5094C55.6563 87.2052 52.4184 85.6206 52.2347 85.7469C50.3172 87.7506 50.9544 90.2996 50.1966 92.0219C49.2723 94.1518 47.0448 93.2045 47.0448 97.4644V109.767H102.997C103.094 109.767 104.007 108.883 104.133 108.613V35.3867C104.007 35.1169 103.094 34.2328 102.997 34.2328H47.039V55.1244C47.039 55.3597 45.5636 56.1233 47.3204 55.9798C50.122 52.7074 52.9178 49.5039 57.0629 47.9538C62.9187 45.7608 67.3737 45.422 73.3329 47.219C74.5557 47.5864 78.0348 49.6876 78.3161 49.6876H95.2464V50.8301H80.8996L80.911 51.9668C82.0937 51.6797 84.3729 55.4114 84.6312 55.4114H95.2464V56.5539H85.4924C85.1709 57.3519 86.388 59.987 86.9276 59.987H95.2464V61.1295H87.2147L88.7418 64.4707L95.2521 64.5683V66.2791H88.3571V69.718C88.5696 69.9304 93.3002 69.5745 94.3967 69.718C95.2349 69.8271 96.1764 70.1543 95.2464 70.8605L88.4605 70.9638C86.9736 74.374 86.7037 78.1229 83.7758 80.5915C84.7403 77.5258 86.6291 74.5921 87.0711 71.5724C90.3091 49.3259 61.9198 38.4811 49.1058 55.4631C37.3367 71.0614 51.7869 92.3663 70.8298 88.5715C75.991 87.5439 80.0097 83.772 83.7758 80.5972L83.7701 80.5915ZM46.4649 85.1671C47.0677 85.8388 49.1403 83.5481 49.1403 82.5951L46.7462 79.449L46.4649 85.1671ZM51.6261 84.0246C51.075 83.4907 47.2457 85.7527 47.6189 86.5909C48.6982 89.0078 52.3208 86.522 51.6261 84.0246ZM94.6723 84.0246H92.3759V103.2L93.7996 104.055L94.6665 103.2V84.0246H94.6723ZM65.9787 90.3168H63.1081V103.481H65.9787V90.3168ZM58.5153 93.7557H56.2189V103.487H58.5153V93.7557ZM80.3255 93.7557H77.4549V103.487H80.3255V93.7557Z" fill="white"/>
<path d="M95.2465 42.2416V43.384C94.6552 43.5792 94.0237 42.8157 93.8113 42.8157H57.9414V42.2416H95.2465Z" fill="white"/>
<path d="M56.793 51.9725C61.9254 46.4152 73.3214 49.4809 78.7122 53.7235C85.0962 58.7469 88.248 71.4403 82.042 77.7267C85.0445 68.7248 85.4464 59.5219 76.7315 53.5168C69.871 48.7862 64.2678 49.7794 56.793 51.9725Z" fill="white"/>
<path d="M56.7928 51.9725C54.9614 53.9532 51.7178 56.3127 50.3227 58.9995C47.59 64.264 46.9699 68.6617 49.0539 74.2821C52.975 84.8341 66.0416 89.3351 75.3363 83.3644C77.1562 82.1932 80.6066 79.1792 82.0361 77.7325C81.0084 80.8097 77.1849 84.0935 74.0159 85.4886C73.2293 85.833 72.2419 85.5517 71.553 85.7814C71.0191 85.9594 71.3348 86.8033 70.3072 86.9353C56.0006 88.7954 44.7539 78.2779 47.0618 63.7474C47.7392 59.476 52.8487 53.138 56.7871 51.9783L56.7928 51.9725Z" fill="white"/>
<path d="M63.1082 69.718C63.0164 69.8615 63.378 70.3553 62.7408 70.9007C62.2815 71.2968 55.7942 74.9595 55.3923 74.8619C49.3872 66.526 56.4084 54.5215 66.5528 55.4114V68.0014L77.455 73.1569C76.68 77.721 70.5199 81.1254 65.973 80.5915V69.7123C65.0315 69.7524 64.0555 69.6548 63.1082 69.7123C63.3493 69.3448 64.4057 68.1048 64.2564 68.0014L54.5369 66.2964C53.0327 68.92 55.1971 70.5275 55.0765 73.1454C58.1537 73.375 60.3468 69.8902 63.1082 69.7065V69.718ZM65.9787 56.5538C64.021 56.4964 61.7131 56.4907 60.2377 58.0063C60.1344 58.5058 64.4172 65.5385 65.9787 65.1367V56.5538Z" fill="white"/>
<path d="M68.2754 53.4019C68.8725 51.2777 74.6479 54.4468 75.9396 55.4629C79.0111 57.8684 81.6462 62.0307 82.0883 65.9518C82.2662 67.5306 82.6452 72.4736 80.6014 72.6171C79.3096 72.7032 69.636 67.4789 68.2754 65.992V53.4019ZM69.4179 53.689V66.279C71.0024 65.7968 70.9966 67.0885 71.8635 67.5822C72.9141 68.1735 79.3556 71.3426 80.0273 71.4402C81.1984 71.6124 80.7851 71.3311 80.8941 70.5848C82.0481 62.599 77.2371 55.4285 69.4179 53.689Z" fill="white"/>
<path d="M64.2506 72.5769C64.2391 76.1364 64.5836 79.8451 63.1368 83.215C61.7073 84.3173 52.9637 79.8106 54.7549 77.6922C56.5117 77.2157 63.2 71.5034 64.2506 72.5827V72.5769ZM63.1024 74.2992L56.2246 77.7439C54.8525 79.5925 61.4891 82.8361 62.557 82.0496L63.1024 74.2992Z" fill="white"/>
<path d="M65.9783 90.317C78.3059 90.317 88.2994 80.3235 88.2994 67.9959C88.2994 55.6683 78.3059 45.6748 65.9783 45.6748C53.6507 45.6748 43.6572 55.6683 43.6572 67.9959C43.6572 80.3235 53.6507 90.317 65.9783 90.317Z" stroke="white" stroke-width="1.7223" stroke-miterlimit="10"/>
<path d="M65.9786 85.9937C75.9186 85.9937 83.9766 77.9357 83.9766 67.9956C83.9766 58.0556 75.9186 49.9976 65.9786 49.9976C56.0385 49.9976 47.9805 58.0556 47.9805 67.9956C47.9805 77.9357 56.0385 85.9937 65.9786 85.9937Z" stroke="white" stroke-width="1.1482" stroke-miterlimit="10"/>
</g>
<defs>
<clipPath id="clip0_40_24791">
<rect width="77.32" height="77.2626" fill="white" transform="translate(27.6797 33.6587)"/>
</clipPath>
</defs>
</svg>
