<svg width="144" height="144" viewBox="0 0 144 144" fill="none" xmlns="http://www.w3.org/2000/svg">
<circle cx="72" cy="72" r="72" fill="#041B44"/>
<g clip-path="url(#clip0_40_24787)">
<path d="M34.2202 97.462L41.5781 96.8549C40.7075 92.8571 43.2337 93.6542 44.6562 92.2807C46.2382 90.7478 44.6807 72.0771 45.2939 68.4962C41.0937 68.4962 42.1729 64.3329 41.0018 63.499C39.6712 62.5547 35.4527 64.0324 34.49 62.6589L34.5268 54.0624C35.6366 51.7815 42.4243 53.5229 45.3859 52.1862C46.0726 51.8734 47.4154 49.7703 48.188 49.1817C56.0549 43.1666 63.7255 37.0411 71.6476 31.1241C73.4686 30.419 77.7424 34.2757 79.4163 35.5388C84.8428 39.6225 89.8462 44.399 95.2236 48.5746C96.0575 49.2246 99.6567 52.3088 99.9449 52.4192C102.827 53.5229 106.432 52.2904 109.173 52.8606C109.271 52.879 110.841 53.9582 110.841 54.0624V62.6222L103.44 63.4928C102.606 66.9143 102.753 67.5213 99.1539 68.4962V92.201C101.944 93.2311 103.397 93.2986 102.87 96.8549C103.293 97.3148 109.247 95.9965 110.283 97.7133C111.209 98.8783 111.38 105.887 109.915 107.248H34.2202V97.4681V97.462ZM49.5431 52.8361H94.8986L72.5305 35.1648L49.5431 52.8361ZM107.162 56.5028H38.2058L37.3657 57.5023L37.286 59.5625H107.162V56.5089V56.5028ZM56.2879 64.4494C56.3369 64.0508 55.4724 63.2292 55.3681 63.2292H46.1769C46.0726 63.2292 45.2081 64.057 45.2571 64.4494H56.2879ZM59.3537 96.8488H85.0942L85.1616 93.2434C86.7068 92.9307 88.4298 92.9 88.7731 91.0422C89.9443 84.6653 87.927 74.9099 88.7425 68.1467L85.1739 67.4232L85.0145 64.2286L84.0886 63.3089L59.6173 63.7933L59.274 67.4232L56.245 68.4901V92.1888L59.2678 93.2557L59.3475 96.8427L59.3537 96.8488ZM99.1907 63.2292H88.7731V64.4494H99.1907V63.2292ZM52.6089 68.1222H48.9299V92.5751H52.6089V68.1222ZM95.5118 68.1222H91.8328V91.6553C92.679 92.8939 94.1935 92.5935 95.5118 92.5751V68.1222ZM56.2879 96.8488C56.3369 96.4502 55.4724 95.6286 55.3681 95.6286H46.1769C46.0726 95.6286 45.2081 96.4564 45.2571 96.8488H56.2879ZM99.1907 95.6286H88.7731V96.8488H99.1907V95.6286ZM107.162 100.515H37.286C37.0162 103.489 37.0591 103.9 40.0391 104.182C60.6291 106.132 84.1438 102.704 105.046 104.213L106.892 103.612L107.162 100.515Z" fill="white"/>
</g>
<defs>
<clipPath id="clip0_40_24787">
<rect width="76.78" height="76.2036" fill="white" transform="translate(34.2197 31.0381)"/>
</clipPath>
</defs>
</svg>
