<svg width="144" height="144" viewBox="0 0 144 144" fill="none" xmlns="http://www.w3.org/2000/svg">
<circle cx="72" cy="72" r="72" fill="#041B44"/>
<g clip-path="url(#clip0_40_24820)">
<path d="M81.0301 50.62V73.0047C82.9861 73.2248 84.6969 71.7279 86.2441 70.6586L86.1875 69.9353C83.8226 69.1177 85.5208 64.1426 86.7787 62.3438C93.3639 52.9094 106.981 62.6834 100.88 72.1052C99.9051 73.6085 98.4145 73.967 97.1 74.6022C96.6471 74.8223 96.8798 75.5205 95.9427 75.6463C92.6155 76.074 89.3323 75.3192 87.4769 72.4512C86.3699 72.3317 81.2062 75.2312 81.0552 75.9859C80.9294 76.6337 80.898 79.9106 81.0992 80.2251C83.8226 81.4138 86.7913 81.1434 89.6091 81.8918C91.9425 82.5145 96.3892 85.697 97.5591 85.892C99.1504 86.1562 104.264 82.7409 106.088 83.112C109.333 83.7787 111.358 86.9047 108.975 89.6847C99.4837 96.4397 89.7915 102.824 79.703 108.899C74.426 110.56 68.1175 107.648 62.9035 106.446C59.092 105.566 54.8402 105.289 51.2929 103.717C51.8589 107.641 49.2802 109.409 45.6134 108.994L44.7643 111H35.0972V77.9483L35.8771 77.1684H44.2297C45.1102 77.1684 45.4813 79.5836 45.6071 79.6968C46.2612 80.2817 52.4942 78.6338 51.2803 83.936C55.3559 82.9862 61.3311 85.1373 64.9287 84.6907C66.6898 84.4706 69.6648 82.3007 71.8095 81.7661C76.6839 80.5522 80.7659 82.7661 79.3822 75.4324L74.0486 72.6084C67.0609 80.2691 54.683 72.2122 59.7021 62.935C64.8532 53.4126 79.1117 60.8406 74.8285 70.6146C74.9983 71.3128 78.4387 73.338 79.4639 73.0109V51.4062L81.0301 50.6263V50.62ZM73.0045 71.2561C78.3318 62.1803 64.2935 55.0164 60.5574 64.8219C57.4881 72.8789 69.432 77.3508 73.0045 71.2561ZM98.4774 62.369C95.4961 59.4757 92.345 59.0984 89.087 62.0419C83.2754 67.2874 88.7725 75.7343 96.3263 74.0361C96.7352 73.9418 96.7226 73.2311 97.0748 73.0047C97.5402 72.7153 98.295 72.6902 98.6283 72.338C101.742 69.0422 101.698 65.4949 98.4774 62.369ZM43.9718 109.44V79.5081C42.1667 77.9168 38.9841 79.049 36.6633 78.7282V109.44H43.9718ZM45.5379 107.358C48.4751 107.497 49.45 107.541 49.7456 104.528C50.4312 97.5278 49.2362 89.3199 49.645 82.1875L48.8651 81.4075L45.5442 81.3321V107.358H45.5379ZM95.1187 86.0241C92.9488 85.2065 90.628 83.6592 88.37 83.1183C82.7534 81.7786 74.0486 81.8227 68.9163 84.609C68.3188 84.936 67.6018 85.2631 67.4571 86.0115L87.4643 87.1625C88.4392 87.7034 88.3323 89.1123 90.1437 89.0683C91.0682 89.0494 95.8987 87.1059 95.1125 86.0241H95.1187ZM51.2803 85.4958V101.893C54.4188 103.855 59.224 104.012 62.8972 104.887C67.6961 106.025 74.6713 108.818 79.4136 107.553C87.5335 101.22 98.6724 96.1944 106.572 89.8922C109.459 87.5902 109.063 85.2127 105.383 84.5775L90.2066 90.7539C87.458 97.7228 77.9985 94.0308 71.8661 94.8484C69.8283 95.1189 68.0043 96.8548 65.891 96.9491C64.5954 95.7478 70.6019 93.4584 71.4007 93.3389C75.4952 92.7225 82.9547 94.2132 86.4014 93.2005C88.0681 92.7099 88.326 90.062 87.2945 88.8733C85.2441 86.5273 72.5391 87.9173 68.7716 87.5651C65.6331 87.2757 62.7462 85.7662 59.3624 85.4958C56.7145 85.2882 53.9345 85.6342 51.2803 85.4958Z" fill="white"/>
<path d="M81.9671 27.8326C82.2879 28.015 85.6465 33.2605 85.9295 34.0216C87.4831 38.3048 86.1371 42.7515 83.4389 46.2611C81.357 48.9593 80.1242 49.0788 77.9418 46.5567C74.8599 42.9905 73.5327 39.0155 74.9102 34.3675C75.5077 32.3422 79.4198 26.3608 81.9671 27.8326ZM81.0299 36.0468V44.6384C81.0299 44.7013 81.7847 45.6762 82.074 45.1667C86.6466 40.0092 85.7157 33.2228 80.2941 29.3044C75.3819 33.4932 74.1932 40.9967 79.4638 45.4183V36.8267L81.0299 36.0468Z" fill="white"/>
<path d="M100.685 47.8525C100.628 48.0034 100.043 48.0726 99.8736 48.4311C97.3704 53.6578 94.8734 55.9724 88.5964 55.8591C87.5523 55.8403 83.4704 55.3434 83.1685 54.444C83.2125 53.1986 83.3068 51.0853 83.6842 49.9784C83.7408 49.8086 85.3321 47.1858 85.483 46.9908C88.3385 43.1982 92.7161 41.6887 97.427 42.3365C101.282 42.8648 102.069 44.2297 100.685 47.8525ZM96.5087 51.4816C97.4081 50.601 100.125 45.8335 99.578 44.8712C97.3326 40.9025 84.0364 46.3807 85.2063 52.1797C85.5082 52.5194 91.5839 48.2047 93.2884 48.0097C94.5778 47.8588 93.8608 49.0412 93.4016 49.4312C92.1626 50.4815 88.653 51.991 87.0806 52.6577L86.7661 54.2679C90.1059 54.5824 94.0557 53.8905 96.5087 51.4879V51.4816Z" fill="white"/>
<path d="M62.5266 51.3684C60.9038 49.2991 59.5516 46.5569 59.8535 43.8398C67.9482 38.959 77.7725 45.2927 77.848 54.4503C77.5461 55.3497 74.395 55.6831 73.395 55.7585C68.5205 56.1233 65.5141 55.1862 62.5266 51.3747V51.3684ZM71.9798 45.6134C69.2816 43.7643 63.8977 42.6699 61.3567 45.1228C62.6586 51.0665 66.5708 54.7522 72.9484 54.2616C73.5145 54.2176 74.6843 54.5509 74.2378 53.488C73.9233 52.7332 65.9041 48.796 66.9356 48.0223L69.313 48.5066L75.8039 52.1798C76.5901 51.2615 72.9799 46.3053 71.9798 45.6134Z" fill="white"/>
<path d="M94.3074 62.3563C95.1188 63.262 95.4207 63.5891 96.6849 63.891C95.8672 65.8973 92.3828 63.74 92.5149 66.2307C94.3577 66.6835 96.7415 66.6772 96.7415 69.1176L93.8168 73.0046L90.9488 69.8912C91.4205 69.4006 96.4773 69.6585 95.1188 68.3314C89.238 67.2244 90.1877 64.8847 93.8168 61.5575C94.1691 61.4129 94.0055 62.0292 94.3011 62.3563H94.3074Z" fill="white"/>
<path d="M70.0673 63.6395C69.822 65.0672 66.2495 64.7276 65.891 65.1993C66.8533 67.4887 70.0547 66.0484 70.1176 69.1051C70.1365 69.8913 67.4508 71.4386 67.1866 72.4763H66.4193C67.0357 71.0863 63.199 71.0612 64.3249 69.885C64.8721 69.3127 68.1678 69.8159 68.4949 68.3252L64.5576 66.7654C63.5072 64.1804 66.0922 63.4005 67.1929 61.5576C68.0735 62.652 68.3502 63.8344 70.061 63.6332L70.0673 63.6395Z" fill="white"/>
</g>
<defs>
<clipPath id="clip0_40_24820">
<rect width="74.9153" height="83.4" fill="white" transform="translate(35.0977 27.6001)"/>
</clipPath>
</defs>
</svg>
