<svg width="144" height="144" viewBox="0 0 144 144" fill="none" xmlns="http://www.w3.org/2000/svg">
<circle cx="72" cy="72" r="72" fill="#041B44"/>
<g clip-path="url(#clip0_40_24834)">
<path d="M83.0583 36.5261C84.7614 37.607 90.7631 43.5835 91.8251 45.3118C98.2479 55.7566 98.1599 70.7199 90.9264 80.4923L109.604 99.4589C111.59 103.695 108.548 107.773 103.973 106.875C99.3916 105.97 88.0356 91.1508 83.5862 87.8011C81.1792 89.5608 78.2255 91.1319 75.3724 92.0306C59.5983 97.0016 41.9201 89.1335 36.352 73.3908C26.2654 44.8719 57.5559 20.331 83.0583 36.5261ZM79.2687 40.3093C53.0625 25.6351 27.4029 57.1957 45.5902 79.2103C63.7775 101.225 97.3869 83.5026 90.4111 55.191C89.2045 50.2954 83.7119 42.798 79.275 40.3093H79.2687Z" fill="white"/>
<path d="M60.5474 43.3008C60.6793 43.3762 61.8545 45.6386 61.8734 46.022C61.9991 48.7369 58.2849 49.1894 56.4122 50.5342C54.3257 52.0362 51.4097 56.2845 50.7624 58.7229C50.3351 60.3255 50.9761 63.1598 49.8135 64.3538C48.4686 65.7364 45.5337 64.4544 45.0435 62.8141C44.2894 60.3066 48.0475 51.9231 49.8135 49.6167C51.1898 47.8193 58.8505 42.3204 60.5474 43.3008Z" fill="white"/>
</g>
<defs>
<clipPath id="clip0_40_24834">
<rect width="75.8097" height="75.64" fill="white" transform="translate(34.4102 31.36)"/>
</clipPath>
</defs>
</svg>
