<svg width="144" height="144" viewBox="0 0 144 144" fill="none" xmlns="http://www.w3.org/2000/svg">
<circle cx="72" cy="72" r="72" fill="#041B44"/>
<g clip-path="url(#clip0_40_24804)">
<path d="M92.1685 62.5729L92.2009 65.7703C97.2558 67.3431 103.573 67.369 107.592 70.7411C107.955 71.7897 107.987 87.7506 107.683 89.3364C107.346 91.1034 103.702 94.6179 102.738 96.4366C104.188 99.6405 103.948 103.291 104.634 106.592C104.725 107.026 106.951 110.32 104.783 110.32H81.8126L82.4599 105.155H33.2954C33.2436 105.155 33.4184 104.43 33.0559 104.119C32.1821 103.362 31.1012 103.246 31.3084 101.653C32.907 81.1553 29.3407 57.8416 31.3084 37.6865C31.4831 35.8742 31.6061 34.9228 33.3019 33.8678L65.2691 33.57C66.0652 33.4341 64.9326 28.8905 69.1655 28.3403L111.126 28.4957C112.783 29.2594 113.333 30.8516 113.534 32.5474C114.207 38.3079 114.097 51.8676 113.547 57.7575C113.398 59.3691 112.595 62.5665 110.608 62.5665H92.1685V62.5729ZM110.932 30.9552C110.298 31.1623 109.528 30.3079 109.314 30.3079H69.1979L68.227 31.2788V59.9905H84.4016L83.4307 56.7672H71.4632V33.5312H73.405V47.7252C78.0327 49.887 80.2075 43.0392 82.9065 42.6897C83.955 42.5538 86.2851 45.1427 88.4986 44.4308C89.1006 44.2366 92.2915 39.337 93.2818 38.2302C93.6636 37.803 93.2365 36.994 94.7639 37.4017V54.8255H97.3594V56.7607L92.7899 57.0455L92.1814 59.9905H110.945V30.9552H110.932ZM84.4081 62.5729H68.5571C67.9099 62.5729 65.6445 60.3205 65.6445 59.6668V36.4373L64.6737 35.4665H34.9135C34.797 35.4665 33.2954 36.9681 33.2954 37.0781V101.925L82.4728 102.249C87.2948 96.2554 81.2301 94.3913 79.5602 89.66C78.0522 85.3882 79.269 81.4853 78.557 77.7572C78.2528 76.1456 76.2981 74.9029 76.6412 72.89H65.6445V70.9547C65.9876 70.5923 74.0652 71.2136 75.7091 70.9871C78.6217 70.5793 80.8871 68.0616 84.4016 70.9547V62.5665L84.4081 62.5729ZM89.7284 52.7543C89.7802 52.8449 91.4306 53.8158 91.5407 53.8546C93.3594 54.4177 92.9905 47.9906 92.8546 46.7349C92.4145 42.7544 90.065 44.8191 89.6184 47.4404C89.4566 48.4048 89.3595 52.1459 89.7284 52.7608V52.7543ZM84.4081 53.531C87.8449 53.6151 87.8385 47.4145 85.366 46.4437C84.0262 45.9194 84.4599 47.311 84.4081 48.0424C84.2786 49.8546 84.4987 51.7252 84.4081 53.531ZM81.8126 47.7317C81.3272 47.0909 78.7512 49.887 78.6929 50.0747C78.2399 51.4339 78.7382 53.3562 78.5829 54.8255H81.8256L81.8191 47.7252L81.8126 47.7317ZM76.6476 50.955H73.405V54.8319H76.6476V50.955ZM89.5795 54.8255C88.2139 54.5083 86.3433 54.8578 86.3433 56.4371V82.5662C83.1977 82.4627 84.7188 78.1068 84.3628 75.8285C83.8968 72.8447 79.146 70.1004 78.5829 72.5923C78.2463 74.0615 80.2593 74.7281 80.4728 75.3171C81.722 78.741 80.7447 83.6536 81.3272 87.2458C81.612 88.9869 84.4922 93.3493 85.9873 94.2166C87.7155 95.2198 99.7412 95.2133 101.424 94.2166C101.689 94.0613 104.964 89.8348 105.159 89.3882C106.958 85.2652 105.049 76.7928 105.78 72.0291L102.518 70.9483V82.5598H100.576V70.6246L97.34 69.6538V81.5889L96.3691 82.5404L94.751 81.9061V69.0001L93.1329 68.3658L92.162 69.3172V81.576L90.5569 82.5404L89.5795 81.576V54.7996V54.8255ZM84.4081 107.737H102.524L100.583 96.7667L86.9582 97.0515L84.4081 107.737Z" fill="white"/>
<path d="M62.4086 59.9902V89.0255H36.5254V59.9902H62.4086ZM44.2988 62.5663H39.1144V67.7377H44.2988V62.5663ZM60.4669 62.5727H47.2049C45.7551 63.7313 45.6903 66.4885 47.2049 67.7377H60.4669V62.5727ZM44.2923 70.961H39.1144V87.0902H44.2923V70.961ZM52.0592 70.961H46.234V85.4786C46.234 86.9349 51.1854 88.0611 52.0592 86.1259V70.961ZM60.4669 70.961H54.6417V85.4786C54.6417 87.7893 59.3148 87.6792 60.4669 86.1259V70.961Z" fill="white"/>
<path d="M62.4086 96.7667V99.9965H36.5254L36.616 97.8217L37.4963 96.7667H62.4086Z" fill="white"/>
<path d="M62.4086 43.8611H36.5254V46.4436H62.4086V43.8611Z" fill="white"/>
<path d="M62.4082 38.696V41.2785H42.6738C41.9877 41.2785 41.444 39.4468 41.7029 38.696H62.4082Z" fill="white"/>
<path d="M62.4084 92.249H41.7031V94.1843H62.4084V92.249Z" fill="white"/>
<path d="M62.4083 54.8253H44.292V56.7606H62.4083V54.8253Z" fill="white"/>
<path d="M54.6417 49.6669H36.5254V51.6021H54.6417V49.6669Z" fill="white"/>
<path d="M75.9939 99.9962H65.6445L66.0264 97.349C68.8484 96.7341 77.845 95.0966 76.0004 99.9962H75.9939Z" fill="white"/>
<path d="M65.6445 83.8605L65.9293 81.8864C66.8549 80.6178 74.7771 81.2521 76.6412 81.9317L75.9939 83.8605H65.6445Z" fill="white"/>
<path d="M65.6447 76.1195H75.6704C76.3694 76.1195 76.8872 77.3104 75.7028 78.0871C74.1753 79.0903 64.3049 79.9253 65.6447 76.1195Z" fill="white"/>
<path d="M65.6445 94.1843V92.249H75.6703L76.6282 93.2199L75.6703 94.1843H65.6445Z" fill="white"/>
<path d="M103.793 38.709C103.534 42.8513 108.816 41.1685 107.696 45.149L100.583 43.8675L100.66 46.0487L101.651 47.0001L107.625 47.8092C108.233 51.6797 107.812 53.7962 103.832 54.8965L104.46 56.767L102.207 56.8059C101.955 53.6214 97.8513 54.4499 97.9937 50.9677C98.7445 50.2622 106.738 54.5146 105.728 49.7121L99.0681 48.437C95.3141 43.3885 101.405 42.5795 101.897 38.7155H103.793V38.709Z" fill="white"/>
</g>
<defs>
<clipPath id="clip0_40_24804">
<rect width="83.3" height="81.9796" fill="white" transform="translate(30.7002 28.3403)"/>
</clipPath>
</defs>
</svg>
