<svg width="144" height="144" viewBox="0 0 144 144" fill="none" xmlns="http://www.w3.org/2000/svg">
<circle cx="72" cy="72" r="72" fill="#041B44"/>
<g clip-path="url(#clip0_40_24839)">
<path d="M95.0268 45.1344V71.3469L98.3701 73.5018C106.563 76.1669 113.358 83.5319 116.665 91.413C116.996 92.1993 118.04 94.3182 118.088 94.4923C118.478 95.9328 119.529 104.468 119.024 105.321C118.67 105.393 118.052 105.891 117.872 105.891H103.622L101.371 97.4515C97.1156 89.7323 91.6174 86.6711 82.4757 87.2473C75.687 87.6735 68.9703 94.1861 67.5417 100.771C67.3376 101.719 67.9259 105.891 66.2872 105.891H52.0375C51.8994 105.891 50.891 105.387 50.789 105.063C50.4048 98.778 52.6077 92.8356 55.2308 87.2714H45.4048C45.5669 86.7912 44.9126 86.2089 44.9126 86.0469V64C44.9126 63.8379 45.5609 63.2557 45.4048 62.7755H56.2151C56.0531 63.2557 56.7073 63.8379 56.7073 64V84.8224L64.0543 77.6075C64.8586 73.4958 62.8718 57.3853 64.5285 54.7683C65.4349 53.3337 73.9943 53.8739 75.8671 54.4441V71.1008L83.7302 70.6087V45.8727L84.4685 45.1404H95.0328L95.0268 45.1344ZM92.5718 71.1008V48.8079C91.1432 47.3733 88.5742 48.3277 86.6774 48.0756V70.6147L92.5718 71.1069V71.1008ZM72.9199 56.8931H67.0255V75.0204C69.0723 74.8524 70.849 73.0576 72.9199 72.5714V56.8931ZM53.7602 65.7107H47.8658V84.3302H53.7602V65.7107ZM83.7302 73.5498C79.0243 73.0696 74.7926 75.1525 70.4649 76.497C72.0795 79.7503 74.1684 82.6375 75.4289 85.7227L83.7302 84.3302V73.5498ZM86.6774 73.5498V84.3302C88.5682 83.6639 93.3281 86.443 94.4685 85.7227L99.0004 76.8031C95.3569 74.5582 90.9751 73.3938 86.6774 73.5498ZM71.6414 84.6363C71.0891 83.5799 68.7182 78.6279 67.7698 78.5438C65.825 79.6183 64.1503 81.0469 62.5837 82.6075C61.5633 83.6219 58.7182 86.6051 59.1983 87.9496C60.855 88.844 66.7494 93.0877 68.184 92.6075C68.4961 92.5055 72.7518 88.2438 72.8538 87.9256C73.5741 85.7828 72.0375 85.3866 71.6414 84.6303V84.6363ZM104.18 79.6183C103.562 79.1621 102.866 78.844 102.146 78.5739L96.5694 87.1093L102.182 92.6795L111.233 87.4574C111.323 86.9832 108.406 83.6699 107.842 83.0757C107.23 82.4274 104.787 80.0565 104.186 79.6183H104.18ZM53.7602 102.95H64.5705C63.9703 100.747 66.9355 96.8992 65.813 95.0985L56.9594 90.2005C55.2548 94.1982 53.5141 98.5019 53.7602 102.944V102.95ZM106.083 102.95H115.909L116.575 101.821C115.159 98.0157 115.513 93.2918 112.476 90.2726L103.418 95.6447L106.083 102.95Z" fill="white"/>
<path d="M79.7148 31.0106C80.6452 32.5233 77.0978 38.6397 76.8336 40.7165L74.4687 40.1643C73.5443 38.3156 75.291 37.8654 75.4111 37.0791C75.9093 33.8798 74.4207 35.8966 73.3582 36.5089C58.7664 44.8642 44.2525 53.5557 29.4446 61.3469C27.5598 61.2808 27.1576 60.1884 28.7003 59.0899L73.9045 32.4032C72.1157 32.6373 68.2742 32.1511 69.9609 29.6961C70.9693 29.0118 79.1626 30.1163 79.7088 31.0106H79.7148Z" fill="white"/>
<path d="M37.0553 72.0851V86.0467C37.0553 86.1307 35.9149 87.2712 35.8249 87.2712H26.251C26.209 87.2712 26.335 86.725 26.0769 86.4669C25.8188 86.2088 25.2666 86.3348 25.2666 86.2928V72.8174L26.0049 72.0851H37.0613H37.0553ZM34.6004 75.0203C34.6004 74.6901 28.838 73.8558 28.2138 75.2664V83.5977C29.5463 84.9963 31.9713 84.1079 33.772 84.348C34.0962 84.252 34.6004 83.2436 34.6004 83.1055V75.0203Z" fill="white"/>
<path d="M93.5022 96.1429C94.8528 98.4779 90.453 100.375 89.6066 101.833C88.6342 103.508 90.453 106.437 87.3737 108.268C81.4013 111.815 77.5238 101.359 84.0964 100.08C85.2849 99.8524 86.3773 100.585 87.1637 100.267C87.95 99.9484 92.2597 93.982 93.5082 96.1429H93.5022ZM86.6054 105.333C87.8119 103.334 82.7939 101.461 83.8083 105.057C84.2585 106.647 86.1372 106.107 86.6054 105.333Z" fill="white"/>
</g>
<defs>
<clipPath id="clip0_40_24839">
<rect width="93.8958" height="79.52" fill="white" transform="translate(25.2671 29.48)"/>
</clipPath>
</defs>
</svg>
