<svg width="144" height="144" viewBox="0 0 144 144" fill="none" xmlns="http://www.w3.org/2000/svg">
<circle cx="72" cy="72" r="72" fill="#041B44"/>
<g clip-path="url(#clip0_40_24829)">
<path d="M99.0772 51.1695C95.5881 51.9441 92.369 48.8813 93.5486 45.2928C93.904 44.2055 101.38 36.9573 102.609 36.5807C105.935 35.5645 114.327 42.9762 114.718 45.9181C115.108 48.86 112.231 52.1146 109.026 51.1624L108.884 92.4558C106.489 97.2098 101.742 94.879 97.8123 96.6484C96.59 105.979 90.223 111.699 81.8734 114.968C81.3688 115.167 81.3475 116.204 80.8359 116.311C69.6083 118.72 55.4459 114.733 49.8889 104.088C49.0717 102.525 47.3876 96.6271 46.542 96.1225C44.6162 94.9855 38.974 96.8544 37.432 93.8699L36.8848 52.4841L36.494 51.2334C32.8415 51.6669 30.8731 49.6772 31.0578 46.0176C31.1715 43.6868 38.2847 36.6731 40.6439 36.4457C42.9747 36.2183 44.9218 37.8243 46.6486 39.1389C50.2087 41.8676 52.7314 44.8877 51.3244 49.599L45.7958 51.1695V86.5933C47.9348 86.9628 47.6221 83.3813 48.3824 81.7256C51.3172 75.2946 55.5809 70.7894 61.9621 67.6485C63.6108 66.8384 66.6593 66.9734 67.4694 65.3532L67.8176 51.1766C65.0604 52.0933 61.9764 49.4143 62.1256 46.6429C62.2748 43.8716 69.5728 36.3036 72.4436 36.4102C75.3145 36.5168 83.1667 43.7223 83.4722 45.8968C83.927 49.0874 80.6724 51.7522 77.6808 51.5745L77.3965 65.3461C84.8863 67.7764 90.6209 70.967 95.0054 77.5686L99.0701 86.5862V51.1695H99.0772ZM106.887 91.9015V47.6236C108.834 49.1798 110.525 49.9046 112.252 47.6236C113.431 45.3425 106.453 38.5633 104.428 38.5349C102.076 38.4994 96.05 44.2837 95.5952 45.9963C94.8206 48.9524 99.2975 50.0752 101.202 47.6236V88.7109L97.0591 88.5901C94.2593 77.1777 87.5582 69.6026 75.7195 67.3784L75.6342 48.3342L79.8766 48.7108C84.3534 46.4297 74.1846 38.1512 71.8822 38.5207C70.3971 38.7623 61.415 46.7495 65.4512 49.059C66.5029 48.9879 67.8033 49.2864 68.7769 49.0448C69.6154 48.8387 68.7698 47.318 69.9423 47.6165V67.4495C59.4608 68.9276 49.5336 77.6325 49.3418 88.7038H43.6569V47.6236L49.3418 49.0448C51.2107 45.7476 43.6 38.3643 41.1556 38.4283C40.047 38.4567 29.7858 46.6713 34.1845 49.0945L39.3933 48.3413C38.8532 49.4001 38.6755 50.2812 38.64 51.4822C38.2847 64.6355 38.8532 77.8812 38.839 91.0346C39.9404 95.8809 45.8314 92.335 49.221 94.5023C53.7049 121.996 91.8432 121.264 96.9027 93.9978C98.8 92.74 105.977 95.1135 106.88 91.9015H106.887Z" fill="white"/>
<path d="M78.9957 73.3473C79.5571 75.2588 81.6462 74.6122 83.1954 75.5146C83.5578 75.7278 88.8731 81.1142 89.0721 81.4837C90.8486 84.7667 92.0708 92.4484 91.2323 96.0086C91.1186 96.4989 90.1309 96.4562 89.8964 97.0602C88.8021 99.8814 88.9726 100.954 86.6418 103.598C78.1714 113.205 60.8894 110.612 55.702 99.0144C48.8446 83.6724 63.0496 68.9486 78.9886 73.3473H78.9957ZM74.7462 75.4365C71.2856 71.9545 69.9923 77.7815 69.0187 78.62C68.6776 78.9113 67.7325 78.6342 67.0788 79.2666C64.5845 81.6898 63.8171 86.1595 65.5368 89.2436C67.6686 93.0666 76.004 94.2107 75.6842 97.5577C75.1726 102.909 68.6492 95.5538 66.1834 97.1526C62.0264 99.8458 68.4076 103.214 69.438 104.273C70.5465 105.41 70.0349 107.613 72.4225 107.805C75.2792 108.032 74.8813 105.524 75.8264 104.5C76.5441 103.726 78.2282 103.477 78.9743 102.674C82.5345 98.8012 81.6249 94.3813 77.7876 91.1764C75.6416 89.3786 67.3346 87.4386 69.8786 84.0917C73.6022 79.1956 76.9136 88.2842 79.5855 84.518C81.831 81.3487 77.4821 79.5793 76.0182 78.0515C75.3218 77.3267 75.3005 75.9978 74.7462 75.4507V75.4365Z" fill="white"/>
</g>
<defs>
<clipPath id="clip0_40_24829">
<rect width="83.7025" height="80.59" fill="white" transform="translate(31.0439 36.4102)"/>
</clipPath>
</defs>
</svg>
