<svg width="26" height="26" viewBox="0 0 26 26" fill="none" xmlns="http://www.w3.org/2000/svg">
<g clip-path="url(#clip0_733_1607)">
<path d="M24.0239 0.766113H2.59305C1.56645 0.766113 0.736328 1.57659 0.736328 2.57862V24.0979C0.736328 25.0999 1.56645 25.9153 2.59305 25.9153H24.0239C25.0505 25.9153 25.8855 25.0999 25.8855 24.1028V2.57862C25.8855 1.57659 25.0505 0.766113 24.0239 0.766113ZM8.19759 22.197H4.4645V10.1922H8.19759V22.197ZM6.33104 8.55647C5.13253 8.55647 4.16487 7.58882 4.16487 6.39521C4.16487 5.20161 5.13253 4.23395 6.33104 4.23395C7.52465 4.23395 8.4923 5.20161 8.4923 6.39521C8.4923 7.5839 7.52465 8.55647 6.33104 8.55647ZM22.1672 22.197H18.439V16.3616C18.439 14.9715 18.4144 13.1786 16.4988 13.1786C14.5586 13.1786 14.2638 14.6964 14.2638 16.2633V22.197H10.5406V10.1922H14.1165V11.8327H14.1656C14.6617 10.8896 15.8799 9.89252 17.6924 9.89252C21.4697 9.89252 22.1672 12.378 22.1672 15.61V22.197Z" fill="#E9E9E9"/>
</g>
<defs>
<clipPath id="clip0_733_1607">
<rect width="25.1492" height="25.1492" fill="white" transform="translate(0.736328 0.766113)"/>
</clipPath>
</defs>
</svg>
