<svg width="26" height="26" viewBox="0 0 26 26" fill="none" xmlns="http://www.w3.org/2000/svg">
<g clip-path="url(#clip0_1063_1901)">
<path d="M23.8852 0H2.45437C1.42778 0 0.597656 0.810472 0.597656 1.81251V23.3318C0.597656 24.3338 1.42778 25.1492 2.45437 25.1492H23.8852C24.9118 25.1492 25.7469 24.3338 25.7469 23.3367V1.81251C25.7469 0.810472 24.9118 0 23.8852 0ZM8.05891 21.4309H4.32583V9.42604H8.05891V21.4309ZM6.19237 7.79036C4.99385 7.79036 4.0262 6.8227 4.0262 5.6291C4.0262 4.43549 4.99385 3.46784 6.19237 3.46784C7.38598 3.46784 8.35363 4.43549 8.35363 5.6291C8.35363 6.81779 7.38598 7.79036 6.19237 7.79036ZM22.0285 21.4309H18.3003V15.5955C18.3003 14.2054 18.2758 12.4125 16.3601 12.4125C14.4199 12.4125 14.1252 13.9303 14.1252 15.4972V21.4309H10.4019V9.42604H13.9778V11.0666H14.0269C14.523 10.1235 15.7412 9.12641 17.5537 9.12641C21.331 9.12641 22.0285 11.6119 22.0285 14.8439V21.4309Z" fill="#E9E9E9"/>
</g>
<defs>
<clipPath id="clip0_1063_1901">
<rect width="25.1492" height="25.1492" fill="white" transform="translate(0.597656)"/>
</clipPath>
</defs>
</svg>
