<svg width="19" height="22" viewBox="0 0 19 22" fill="none" xmlns="http://www.w3.org/2000/svg">
<path d="M15.3616 15.9443C14.3801 16.9258 12.3276 18.9783 10.9153 20.3906C10.0969 21.209 8.77125 21.2095 7.9528 20.391C6.5651 19.0033 4.55238 16.9906 3.50612 15.9443C0.232333 12.6705 0.232333 7.36268 3.50612 4.08889C6.77992 0.815097 12.0878 0.815097 15.3616 4.08889C18.6354 7.36268 18.6354 12.6705 15.3616 15.9443Z" stroke="#E9E9E9" stroke-width="1.57183" stroke-linecap="round" stroke-linejoin="round"/>
<path d="M12.5775 10.0166C12.5775 11.7528 11.17 13.1603 9.43385 13.1603C7.69766 13.1603 6.2902 11.7528 6.2902 10.0166C6.2902 8.28042 7.69766 6.87296 9.43385 6.87296C11.17 6.87296 12.5775 8.28042 12.5775 10.0166Z" stroke="#E9E9E9" stroke-width="1.57183" stroke-linecap="round" stroke-linejoin="round"/>
</svg>
