<svg width="309" height="57" viewBox="0 0 309 57" fill="none" xmlns="http://www.w3.org/2000/svg">
<g clip-path="url(#clip0_40_24562)">
<path d="M74.8814 37.7059H67.3898V36.3369L69.3887 35.8918V21.1943L67.373 20.9424V19.3466H74.7722V20.9424L72.7901 21.1775V27.6192H80.6848V21.1691L78.7111 20.9424V19.3466H86.0683V20.9424L84.0694 21.1775V35.9002L86.1858 36.3537V37.7143H78.5851V36.3537L80.6848 35.917V29.5173H72.7901V35.9002L74.8898 36.3369V37.7059H74.8814ZM93.2742 37.7059H87.0845V36.3369L88.7054 35.9086L94.6684 19.3382H97.7675L103.512 35.9086L105.343 36.3453V37.7059H98.0698V36.3453L99.8083 35.8834L98.9936 33.2211H92.2664L91.4265 35.8582L93.2826 36.3285V37.6975L93.2742 37.7059ZM95.7014 22.4289L92.8459 31.3818H98.4057L96.684 25.8135L95.7014 22.4289ZM107.661 30.122C107.661 28.0811 107.669 25.108 107.686 21.1943L105.822 20.934V19.3382H113.103V20.934L111.062 21.1943V30.2564C111.062 31.2306 111.146 32.0789 111.314 32.8095C111.482 33.5402 111.709 34.1281 111.986 34.5648C112.263 35.01 112.608 35.3627 113.011 35.6315C113.422 35.9002 113.834 36.085 114.262 36.1858C114.691 36.2865 115.161 36.3369 115.682 36.3369C118.47 36.3369 119.856 34.1365 119.847 29.7357L119.822 21.2363L117.764 20.9508V19.355H123.879V20.9508L122.106 21.2363V29.7273C122.106 30.9451 121.989 32.0285 121.754 32.9775C121.519 33.9349 121.191 34.7244 120.78 35.3543C120.368 35.9842 119.864 36.5049 119.268 36.9164C118.68 37.328 118.05 37.6219 117.387 37.7899C116.723 37.9663 115.992 38.0502 115.203 38.0502C112.574 38.0502 110.659 37.3951 109.441 36.0934C108.232 34.7916 107.636 32.8011 107.644 30.1388M128.12 37.7059H125.298V36.3369L127.196 35.8918V21.1943L125.348 20.9424V19.3466H128.733C129.195 19.2794 130.597 19.2207 132.949 19.1787C134.965 19.1451 136.51 19.5146 137.593 20.2789C138.677 21.0431 139.214 22.1014 139.214 23.4451C139.214 24.5202 138.937 25.444 138.391 26.2335C137.845 27.0229 137.039 27.5436 135.964 27.804C137.199 27.8208 138.257 28.2491 139.13 29.0974C140.004 29.9456 140.441 30.9954 140.441 32.2468C140.441 35.9758 137.753 37.8403 132.378 37.8403C131.891 37.8403 131.177 37.8235 130.245 37.7731C129.304 37.7311 128.599 37.7059 128.12 37.6975M130.581 20.9172L130.555 27.2833C130.816 27.3421 131.521 27.3757 132.672 27.3757C133.184 27.3757 133.638 27.3085 134.032 27.1657C134.427 27.0313 134.746 26.8466 134.99 26.6282C135.225 26.4014 135.427 26.1327 135.578 25.8219C135.729 25.5028 135.838 25.1836 135.897 24.8561C135.956 24.5285 135.989 24.1758 135.989 23.8063C135.989 22.8572 135.687 22.1098 135.091 21.5639C134.494 21.0179 133.604 20.7408 132.412 20.7408C131.462 20.7408 130.849 20.7996 130.581 20.9172ZM130.547 29.1226V35.917C130.749 36.0262 131.101 36.1186 131.63 36.1942C132.151 36.2613 132.68 36.3033 133.218 36.3033C134.394 36.3033 135.301 35.9506 135.939 35.2535C136.577 34.548 136.896 33.6578 136.896 32.566C136.896 30.1976 135.67 29.0134 133.226 29.0134C131.891 29.0134 131.001 29.047 130.564 29.1226M156.263 37.7059H142.423V36.3369L144.279 35.9086V21.1859L142.481 20.934V19.3382H155.382L155.734 23.1008H153.803L152.938 21.1607L147.638 20.9592V27.4177L151.25 27.3253L151.77 25.5196H153.509V30.9954H151.77L151.25 29.1478L147.638 29.0806V36.0934L153.609 35.7994L154.978 33.4226L156.868 33.7922L156.263 37.7143V37.7059ZM166.191 37.7059H158.363V36.3369L160.488 35.8918V21.3119L158.615 21.0599V19.3466H161.462C162.008 19.3466 162.806 19.3214 163.839 19.2626C164.872 19.2039 165.603 19.1787 166.039 19.1787C170.524 19.1787 172.767 20.7912 172.767 24.0162C172.767 25.3432 172.431 26.4602 171.75 27.3841C171.079 28.3079 170.087 28.9798 168.786 29.4249C169.18 29.6013 169.575 29.9288 169.978 30.4075C170.381 30.8863 170.751 31.407 171.07 31.9697C171.389 32.5324 171.708 33.0951 172.011 33.6494C172.313 34.2037 172.615 34.6992 172.918 35.1275C173.22 35.5559 173.497 35.8246 173.749 35.9338L175.16 36.3369V37.7059H170.869C170.617 37.7059 170.331 37.4371 170.004 36.8996C169.684 36.3621 169.357 35.707 169.021 34.9428C168.693 34.1701 168.349 33.4058 167.988 32.6332C167.627 31.8605 167.232 31.2138 166.787 30.6931C166.342 30.1724 165.905 29.9204 165.468 29.9372L163.839 29.9624V35.9338L166.174 36.3453V37.7143L166.191 37.7059ZM163.856 20.9844V28.2575C164.561 28.3751 165.334 28.4003 166.174 28.3163C166.627 28.2911 167.047 28.2071 167.417 28.0643C167.786 27.9216 168.131 27.7032 168.441 27.4177C168.761 27.1321 169.004 26.729 169.18 26.2167C169.357 25.6959 169.449 25.0829 169.449 24.3774C169.449 23.8735 169.382 23.4115 169.256 23C169.13 22.5885 168.92 22.2105 168.635 21.8662C168.349 21.5219 167.946 21.2615 167.434 21.0767C166.921 20.892 166.308 20.808 165.594 20.8164C164.696 20.8332 164.125 20.8836 163.873 20.9844M183.609 37.7059H175.832V36.3369L177.957 35.9002V21.2027L175.832 20.9424V19.3466H183.349V20.9424L181.316 21.2195V28.5347L187.313 21.1943L185.448 20.9424C185.448 20.5896 185.44 20.0521 185.423 19.3466H192.117V20.9424L190.042 21.2195L184.743 27.1825C185.171 27.5856 185.709 28.2743 186.372 29.2485C187.027 30.2228 187.632 31.1718 188.186 32.0873C188.741 33.0027 189.287 33.851 189.833 34.6152C190.37 35.3879 190.765 35.8162 191.017 35.9086L192.705 36.3453V37.7143H188.287C188.027 37.7143 187.666 37.3364 187.204 36.5889C186.742 35.8414 186.297 34.9932 185.852 34.0525C185.406 33.1119 184.911 32.1544 184.357 31.1802C183.802 30.2144 183.324 29.5509 182.937 29.2065L181.325 31.029V35.9002L183.618 36.3369V37.7059H183.609ZM199.827 29.1394C199.827 27.6528 200.104 26.2838 200.658 25.0073C201.213 23.7391 201.952 22.6809 202.875 21.841C203.799 21.0012 204.866 20.3461 206.067 19.8757C207.268 19.4054 208.528 19.1619 209.829 19.1619C210.535 19.1619 211.173 19.2039 211.77 19.2878C212.357 19.3718 213.013 19.5062 213.718 19.6826C214.424 19.8673 214.785 19.9597 214.801 19.9597L214.583 24.0498H212.643L211.887 21.8242C211.568 21.5303 211.182 21.3203 210.745 21.1943C210.308 21.0683 209.687 21.0012 208.872 21.0012C208.133 21.0012 207.436 21.1607 206.789 21.4883C206.143 21.8074 205.571 22.2693 205.084 22.8656C204.597 23.4619 204.211 24.2178 203.925 25.1416C203.64 26.0655 203.497 27.0901 203.497 28.2071C203.497 29.3241 203.623 30.2984 203.858 31.2726C204.102 32.2384 204.454 33.1035 204.916 33.8678C205.378 34.6236 205.966 35.2367 206.688 35.6818C207.411 36.127 208.217 36.3537 209.099 36.3537C210.762 36.3537 211.854 35.9674 212.357 35.1947L213.197 33.0615H214.801V36.9248C214.533 36.9332 214.121 37.034 213.575 37.2188C213.021 37.4035 212.332 37.5799 211.492 37.7563C210.653 37.9327 209.72 38.025 208.696 38.025C206.898 38.025 205.311 37.6387 203.959 36.8576C202.598 36.085 201.574 35.0268 200.868 33.6914C200.163 32.356 199.81 30.8359 199.81 29.131M222.243 37.7059H216.061V36.3369L217.682 35.9086L223.645 19.3382H226.736L232.48 35.9086L234.311 36.3453V37.7059H227.047V36.3453L228.777 35.8834L227.962 33.2211H221.235L220.395 35.8582L222.251 36.3285V37.6975L222.243 37.7059ZM224.67 22.4289L221.814 31.3818H227.374L225.652 25.8135L224.678 22.4289H224.67ZM243.684 37.7059H235.185V36.3369L237.318 35.8918V21.3791L235.319 21.0599V19.3466H239.065C239.35 19.3466 239.955 19.3214 240.887 19.2626C241.82 19.2039 242.584 19.1787 243.18 19.1787C243.97 19.1787 244.675 19.2291 245.313 19.3298C245.943 19.4306 246.556 19.5986 247.136 19.8505C247.715 20.0941 248.203 20.4216 248.589 20.8248C248.975 21.2279 249.286 21.7486 249.521 22.3785C249.756 23.0168 249.874 23.7559 249.874 24.5957C249.874 25.5532 249.689 26.4182 249.311 27.1909C248.933 27.9636 248.429 28.6019 247.783 29.0974C247.144 29.5929 246.405 29.9708 245.557 30.2396C244.717 30.5083 243.818 30.6343 242.878 30.6259C242.097 30.6259 241.358 30.6259 240.661 30.6427V35.9002L243.667 36.3369V37.7059H243.684ZM240.677 21.0179V28.837C241.215 28.921 241.929 28.9714 242.827 28.9714C245.288 28.9714 246.523 27.4848 246.523 24.5034C246.523 23.2772 246.17 22.3533 245.465 21.7402C244.751 21.1271 243.768 20.8332 242.517 20.8332C241.66 20.85 241.047 20.9088 240.686 21.0179M258.818 37.7059H251.041V36.3369L253.216 35.9002V21.1943L251.058 20.9424V19.3466H258.709V20.9424L256.635 21.2027V35.8918L258.827 36.3369V37.7059H258.818ZM272.558 37.7059H263.564V36.3369L266.36 35.9086V21.0347L262.665 21.3203L261.85 23.6383L260.179 23.7139L260.464 19.3466H275.515L275.489 23.6551L274.121 23.8063L273.339 21.3203L269.728 21.0347V35.9002L272.558 36.3369V37.7059ZM282.166 37.7059H275.985V36.3369L277.606 35.9086L283.569 19.3382H286.66L292.413 35.9086L294.243 36.3453V37.7059H286.97V36.3453L288.709 35.8834L287.894 33.2211H281.167L280.327 35.8582L282.183 36.3285V37.6975L282.166 37.7059ZM284.602 22.4289L281.746 31.3818H287.306L285.585 25.8135L284.602 22.4289ZM308.21 37.7059H295.444V36.3369L297.25 35.9254V21.3707L295.486 21.1523V19.355H302.785V21.1523L300.66 21.3875V36.0766L305.792 35.6734L307.538 32.8599L308.991 33.4646L308.202 37.7227L308.21 37.7059Z" fill="white"/>
<mask id="mask0_40_24562" style="mask-type:luminance" maskUnits="userSpaceOnUse" x="0" y="0" width="57" height="57">
<path d="M29.4455 47.146C30.3274 46.9108 30.9741 46.3229 31.3856 45.4915C31.9735 44.4332 32.1499 43.249 32.1499 42.0732V29.4502H34.4427C34.4427 29.6266 34.4427 29.7441 34.3839 29.9793C34.3839 34.1114 34.4427 38.2939 34.3839 42.4848C34.3839 43.4842 34.2075 44.5508 33.9136 45.4915C33.2081 47.7927 31.436 49.0944 29.0256 49.212C28.2025 49.212 27.3207 49.1532 26.4892 48.9769C24.1964 48.4477 23.071 46.7932 22.6595 44.5508C22.5419 44.0217 22.5419 43.4338 22.4831 42.8375H24.6667C24.7255 43.3666 24.7843 43.9545 24.9019 44.492C25.3386 46.2389 26.7244 47.3055 28.3453 47.3055C28.6981 47.3055 29.0676 47.2551 29.4371 47.146M28.3285 45.7854C27.3879 45.7266 26.7412 45.2563 26.4472 44.366C26.3297 43.8957 26.2709 43.3666 26.1533 42.7703H28.2697C28.9752 42.7703 29.2692 42.4764 29.2692 41.7709V29.383C29.7395 29.383 30.2098 29.383 30.6213 29.4418V29.9121C30.6213 33.9854 30.6801 38.0503 30.6213 42.1236C30.6213 42.9467 30.3862 43.7781 30.151 44.5424C29.8151 45.3739 29.2272 45.7854 28.4797 45.7854C28.4293 45.7854 28.3789 45.7854 28.3285 45.7854ZM29.2104 50.5642C33.7456 50.2114 35.3917 46.9612 35.8032 43.8957C35.9208 43.249 35.9208 42.5352 35.9208 41.8885V29.3242H38.0961C38.1548 29.5006 38.1548 29.6182 38.1548 29.7945V42.5352C38.1548 44.1897 37.8609 45.777 37.1554 47.2551C36.2148 49.3212 34.6778 50.7322 32.5614 51.446C30.2014 52.2103 27.791 52.3279 25.3722 51.6224C22.3067 50.7406 20.4843 48.5569 19.4848 45.609C19.1909 44.7272 19.0145 43.7781 18.7794 42.7787C19.6024 42.7787 20.3079 42.7787 20.9546 42.7199C21.0722 43.3666 21.0722 44.0217 21.1897 44.6684C21.9036 48.7837 24.7003 50.5978 28.3537 50.5978C28.6309 50.5978 28.9164 50.5894 29.202 50.5642M33.922 52.5127C36.9286 51.2193 38.6336 48.7417 39.2802 45.5502C39.5154 44.4332 39.5742 43.249 39.5742 42.0732V29.5678C39.5742 29.509 39.633 29.509 39.633 29.3914C40.1033 29.3914 40.5736 29.3914 40.9852 29.3326V41.8381C40.9852 44.786 40.2797 47.5575 38.6839 50.0939C36.8027 53.1006 33.9724 54.6963 30.4953 55.1078C28.3201 55.4018 26.0777 55.2842 23.9613 54.6375C20.0727 53.4617 17.7799 50.7406 16.6041 46.9696C16.1926 45.6174 15.9574 44.1981 15.8986 42.7199H17.192C17.6623 44.2569 17.9563 45.7266 18.5442 47.0872C19.6612 49.9763 21.6685 52.0423 24.6667 52.9914C26.0189 53.4029 27.3711 53.6129 28.7148 53.6129C30.4701 53.6129 32.2087 53.2517 33.9052 52.521M29.3279 26.4351H41.9258C42.8076 26.4351 43.6307 26.5527 44.4622 26.9054C45.2264 27.2582 45.638 27.8461 45.638 28.7363C45.5792 29.677 45.1676 30.332 44.2858 30.626C43.7567 30.8024 43.2276 30.8612 42.5809 30.9787C42.5809 30.2145 42.5809 29.5678 42.6985 28.8539C42.6985 28.1484 42.4045 27.8545 41.699 27.8545H29.3363V26.4351H29.3279ZM14.8404 30.8024C14.0174 30.8024 13.1355 30.626 12.3712 30.332C11.4894 30.0381 11.1367 29.3326 11.1954 28.5012C11.2542 27.5605 11.6658 26.9054 12.5476 26.6115C13.0767 26.4351 13.6058 26.3763 14.2525 26.2587V28.3836C14.2525 29.1478 14.4877 29.383 15.252 29.383H27.6734V30.8024H27.2619C24.4736 30.8024 21.7105 30.8276 18.9641 30.8276C17.5868 30.8276 16.2178 30.8276 14.8404 30.8024ZM14.4877 34.5733C13.547 34.5733 12.6064 34.3969 11.7162 34.1618C9.29737 33.4563 7.9452 31.8018 7.82762 29.2654C7.82762 28.4424 7.88641 27.4933 8.06278 26.6703C8.65068 24.3103 10.3556 23.2521 12.598 22.8321C13.1271 22.7145 13.6562 22.7145 14.2441 22.6558C14.2441 23.42 14.2441 24.1339 14.1265 24.8394C13.4211 24.957 12.7744 25.0158 12.1277 25.1921C10.1876 25.78 9.17979 27.6697 9.76769 29.6182C10.0616 30.5588 10.6495 31.2139 11.4726 31.6254C12.5308 32.1545 13.6478 32.3309 14.832 32.3309H27.6734V34.5733H27.2619C24.4316 34.5733 21.5845 34.5985 18.7374 34.5985C17.318 34.5985 15.8986 34.5985 14.4793 34.5733M29.3279 24.5454V22.6558H29.8571C33.9808 22.6558 38.1632 22.597 42.3373 22.6558C43.278 22.6558 44.2774 22.8321 45.1676 23.0673C47.5864 23.7728 48.9386 25.5449 49.0562 28.0812C49.0562 28.9043 48.9974 29.7945 48.821 30.6176C48.2331 32.9188 46.587 34.0358 44.3446 34.4557C43.8155 34.5733 43.2864 34.5733 42.6985 34.6321V32.4485C43.3451 32.3309 43.9918 32.2721 44.5797 32.0957C46.1671 31.6254 47.0573 30.5 47.1161 28.7951C47.1749 27.2582 46.4106 26.1412 44.8821 25.4945C43.8827 25.0829 42.8832 24.9654 41.8754 24.9654H29.2692C29.2692 24.789 29.2104 24.6714 29.3279 24.5538M29.2104 18.9436H42.3457C43.9918 18.9436 45.5876 19.2375 47.1161 19.943C49.1738 20.8837 50.5931 22.4206 51.2986 24.5454C52.1217 26.9054 52.1804 29.3242 51.5338 31.6842C50.6519 34.7497 48.5271 36.5806 45.6464 37.58C44.7057 37.874 43.7063 38.0503 42.6397 38.3443C42.6397 37.5212 42.6397 36.8661 42.5809 36.1019C43.2276 36.0431 43.8743 35.9843 44.521 35.8667C48.8798 35.1612 50.7023 32.0286 50.4671 27.9636C50.1732 23.3024 46.8726 21.6479 43.8743 21.2364C43.1688 21.1188 42.4045 21.1188 41.6906 21.1188H29.2104V18.9352V18.9436ZM9.95246 37.4036C7.83602 36.463 6.35787 34.9261 5.59361 32.6836C4.77055 30.3824 4.71176 27.9636 5.35845 25.6037C6.1815 22.597 8.30634 20.7073 11.187 19.6995C12.1277 19.3467 13.1859 19.1704 14.2525 18.8764C14.2525 19.7583 14.2525 20.4133 14.3113 21.06C13.4295 21.1776 12.5476 21.2364 11.6574 21.4716C8.35673 22.2358 6.53424 24.6546 6.41666 28.1988C6.35787 30.3824 6.82819 32.4485 8.5331 33.977C9.76769 35.1528 11.3046 35.6903 13.0095 35.9255C13.715 36.0431 14.4793 36.0431 15.1932 36.0431H27.791V38.2855H14.5381C12.9507 38.2855 11.4138 38.0503 9.94406 37.4036M29.2692 16.1637H31.9147C35.3329 16.1637 38.6839 16.0461 42.0434 16.1637C44.9913 16.2225 47.8132 17.0455 50.3496 18.7588C52.7012 20.3546 54.1793 22.597 54.7672 25.4273C55.2963 27.9049 55.2375 30.3824 54.5908 32.86C53.7678 35.9255 51.8781 38.2267 48.9974 39.6461C46.9985 40.6455 44.8737 41.1242 42.5809 41.2418C42.5809 40.7127 42.5809 40.3011 42.6397 39.9988C43.9918 39.5873 45.2936 39.3521 46.5282 38.8818C49.3585 37.8236 51.5337 36.0515 52.6508 33.1624C53.4738 31.0375 53.5914 28.9127 53.2974 26.6703C53.0035 24.6042 52.3568 22.6558 50.9459 21.0684C49.2409 19.0612 46.9397 18.0617 44.4118 17.709C43.5299 17.5914 42.5893 17.5914 41.699 17.5914H29.2776V16.1721L29.2692 16.1637ZM7.06335 38.9994C3.8803 37.1685 2.23418 34.2794 1.76386 30.6848C1.5287 28.4424 1.64628 26.2587 2.29297 24.0751C3.46877 20.3546 6.06393 18.0617 9.7089 16.8775C11.1199 16.4072 12.598 16.1133 14.1853 16.0545V17.4738C12.7156 17.709 11.2458 18.0617 9.82648 18.6496C6.64343 20.0018 4.4682 22.3114 3.70393 25.7296C3.11603 28.6187 3.2924 31.4491 4.52699 34.1618C5.87916 37.1097 8.29794 38.7642 11.355 39.4109C12.5308 39.7048 13.7738 39.7636 15.0084 39.7636H27.4971C27.5559 39.7636 27.6146 39.8224 27.7322 39.8224C27.7322 40.2927 27.7322 40.7043 27.6734 41.183H15.3695C12.3628 41.183 9.59972 40.4775 7.06335 38.9994ZM26.3801 27.3757V15.1642C26.3801 14.2824 26.4976 13.4509 26.8504 12.6279C27.2031 11.8636 27.791 11.4521 28.6729 11.5109C29.5547 11.5697 30.2014 11.9224 30.4953 12.8042C30.6717 13.3334 30.7305 13.8709 30.8481 14.5175H28.7316C28.085 14.5175 27.791 14.8115 27.791 15.4582V27.8461H26.3801V27.3757ZM22.5503 27.317C22.5503 23.1261 22.4915 19.0024 22.5503 14.8115C22.5503 13.8121 22.6679 12.863 22.9618 11.9224C23.6673 9.56239 25.3134 8.20183 27.791 8.08425C28.6729 8.02546 29.5547 8.08425 30.445 8.26062C32.5614 8.73094 33.7456 10.2679 34.2159 12.3339C34.3923 12.9806 34.3923 13.6945 34.5099 14.4H32.3262C32.2087 13.8121 32.1499 13.157 31.9735 12.5691C31.562 10.9146 30.3862 10.0327 28.6729 9.97392C27.2031 9.91513 26.0189 10.6794 25.3722 12.2163C24.9607 13.157 24.8431 14.1648 24.8431 15.1642V27.8461H22.5419V27.317H22.5503ZM18.7878 27.7873V14.6855C18.8465 12.1492 19.4344 9.84795 21.089 7.89948C21.9708 6.90005 23.029 6.18617 24.272 5.77464C26.6908 4.89279 29.1012 4.77521 31.5704 5.48069C34.6358 6.30375 36.4583 8.48738 37.4578 11.3765C37.7517 12.3759 37.9869 13.3837 38.222 14.3832H35.9796C35.862 13.7365 35.862 13.1402 35.7444 12.4935C34.9802 8.12624 31.8559 6.23656 27.6734 6.53051C23.3146 6.88325 21.6097 9.94873 21.1393 13.0226C21.0218 13.7869 21.0218 14.6183 21.0218 15.3826V27.8293C20.2575 27.8293 19.552 27.8293 18.7794 27.7705M16.0162 27.3757C16.0162 23.3612 15.9574 19.4139 16.0162 15.3994C16.075 12.4515 16.7805 9.67997 18.3678 7.14361C19.8964 4.66603 22.08 3.0703 24.9019 2.36483C27.4971 1.71814 30.1426 1.77693 32.7294 2.4824C36.6767 3.54902 39.0871 6.20297 40.2713 10.0327C40.624 11.3345 40.8004 12.7455 41.0355 14.106V14.5175H39.6834C39.3894 13.4005 39.1543 12.2751 38.8015 11.2169C38.0373 8.73934 36.6263 6.67329 34.3839 5.25393C32.3262 3.96055 30.0838 3.59941 27.7322 3.71699C26.1449 3.77578 24.608 4.06973 23.1382 4.72482C20.1315 6.0182 18.4266 8.43699 17.6623 11.6284C17.4272 12.8042 17.3096 14.0472 17.3096 15.2902V27.8545H16.0162V27.3841V27.3757ZM24.2636 0.945468C21.0218 1.76853 18.5526 3.6582 16.8393 6.48852C15.8986 8.08425 15.1932 9.85634 14.8404 11.6788C14.6641 12.6195 14.5465 13.5685 14.3701 14.5091C14.1937 14.5679 14.0762 14.5679 13.8998 14.5679C12.0773 14.6267 10.3052 14.9795 8.60029 15.6346C5.59361 16.8104 3.12443 18.6412 1.65468 21.5891C0.3613 24.1843 0.00855984 26.9558 0.18493 29.8449C0.30251 32.6165 1.12557 35.1528 2.83048 37.3364C4.77055 39.7552 7.30691 41.2334 10.2464 41.9977C11.5986 42.3504 12.9591 42.5268 14.3701 42.8207C14.3701 42.9383 14.3701 43.1147 14.4289 43.291C14.6641 44.7104 14.7816 46.1213 15.1932 47.4819C16.3102 51.2529 18.5526 54.0916 22.2564 55.6789C24.6751 56.6783 27.1443 56.9219 29.7311 56.7371C32.3766 56.5608 34.8542 55.7965 37.0294 54.142C39.4482 52.2523 40.918 49.7159 41.741 46.768C42.0938 45.4159 42.2701 44.0553 42.5641 42.6947C42.6229 42.6947 42.7992 42.6359 42.9168 42.6359C44.3866 42.4008 45.8059 42.2832 47.2169 41.8717C51.0466 40.7547 53.9861 38.4535 55.5231 34.6741C56.5225 32.2553 56.7577 29.6602 56.5225 27.065C56.0522 21.5807 53.2219 17.8602 48.1575 15.7941C46.335 15.0887 44.5042 14.6771 42.6817 14.5511C42.3877 12.8966 42.1526 11.3093 41.741 9.83115C40.4476 5.52269 37.7937 2.45721 33.3761 1.09664C31.7971 0.601127 30.2014 0.365967 28.5973 0.365967C27.1527 0.365967 25.6998 0.559134 24.2468 0.920272" fill="white"/>
</mask>
<g mask="url(#mask0_40_24562)">
<path d="M56.7659 0.391113H0V56.9387H56.7659V0.391113Z" fill="url(#paint0_radial_40_24562)"/>
</g>
</g>
<defs>
<radialGradient id="paint0_radial_40_24562" cx="0" cy="0" r="1" gradientUnits="userSpaceOnUse" gradientTransform="translate(27.8598 27.9681) scale(28.2276 28.2276)">
<stop stop-color="#F2E4D4"/>
<stop offset="1" stop-color="#BE8440"/>
</radialGradient>
<clipPath id="clip0_40_24562">
<rect width="309" height="56.5475" fill="white" transform="translate(0 0.391113)"/>
</clipPath>
</defs>
</svg>
