<svg width="50" height="50" viewBox="0 0 50 50" fill="none" xmlns="http://www.w3.org/2000/svg">
<g clip-path="url(#clip0_40_312)">
<path d="M32.7494 1.18991L32.8094 3.11991C25.1294 1.31991 17.6494 1.86991 11.1594 6.68991C-3.13056 17.2799 0.569435 40.4699 17.5494 45.8699C34.5294 51.2699 48.3994 38.4899 47.2994 21.7599C47.2094 20.3899 45.5294 17.1699 47.0594 16.5399C48.8194 15.8199 49.1994 20.1299 49.2994 21.2599C52.0394 53.9699 7.95943 58.6899 0.849435 31.1599C-4.15057 11.7799 13.6994 -4.63009 32.7494 1.18991Z" fill="#D4AF37"/>
<path d="M26.7296 7.66991L26.7996 9.57991C13.8796 7.95991 5.07956 22.0699 12.6096 32.8899C19.5396 42.8499 35.4696 40.7299 39.1796 29.0999C40.0496 26.3699 39.0596 23.7799 41.0396 22.0199C42.8796 22.0199 41.9396 27.4499 41.6596 28.5899C36.7396 48.8199 4.78956 44.1799 7.83956 21.2999C8.92956 13.1199 18.5396 5.73991 26.7096 7.66991H26.7296Z" fill="#D4AF37"/>
<path d="M41.7596 2.66993L42.2996 7.09993L46.3196 7.31993C47.0996 7.84993 46.8596 8.89993 46.5396 9.57993C46.3296 10.0299 40.0296 16.1999 39.4796 16.4799C37.3996 17.5399 35.4596 16.5499 33.8096 17.2999C31.9196 18.1499 28.1396 23.8199 26.0796 25.0199C25.2796 25.4799 24.7296 25.6199 23.8096 25.4899C23.6696 24.5699 23.8096 24.0199 24.2796 23.2299C25.4896 21.1799 31.1896 17.4199 32.0396 15.5399C32.8896 13.6599 31.6496 11.8599 33.0696 9.60993C33.4596 8.99993 38.9796 3.42993 39.5196 3.09993C40.2496 2.65993 40.8996 2.40993 41.7496 2.66993H41.7596ZM42.7996 9.57993C40.3396 9.80993 39.9196 8.73993 39.5496 6.59993C37.3296 9.15993 33.8896 10.5799 34.7996 14.5499C36.0896 14.4599 37.5496 14.8499 38.7896 14.2899C39.3296 14.0499 43.2896 10.0399 42.7996 9.57993Z" fill="#D4AF37"/>
<path d="M24.2102 14.65C24.7702 14.63 25.1502 14.42 25.5602 15.04L25.5802 16.56C22.0802 17.32 18.4602 18.52 17.5302 22.46C15.3002 31.9 28.3102 35.76 31.8302 27.24C32.3102 26.08 32.1702 22.23 34.3102 23.72C35.7602 27.9 31.3102 33.28 27.0102 33.87C11.6802 35.99 12.0102 14.97 24.2102 14.64V14.65Z" fill="#D4AF37"/>
</g>
<defs>
<clipPath id="clip0_40_312">
<rect width="49.41" height="49.13" fill="white"/>
</clipPath>
</defs>
</svg>
