<svg width="51" height="46" viewBox="0 0 51 46" fill="none" xmlns="http://www.w3.org/2000/svg">
<g clip-path="url(#clip0_733_4296)">
<path d="M2.43874 38.2348C0.762399 36.1621 3.08436 35.2106 3.40906 33.7948C3.70355 32.5111 3.37885 30.9518 3.4959 29.6039C3.58651 28.5694 4.19437 27.4368 4.14907 26.5458C4.06978 24.9978 1.33251 21.9094 0.656683 19.6025C-3.01315 7.05638 9.41218 -3.92291 21.2749 1.3553C22.6908 1.98582 23.68 2.97501 25.0996 3.40542C26.236 3.40542 27.3309 2.08021 28.4145 1.61581C44.4719 -5.24058 57.6901 13.4068 45.9368 26.1002C45.446 26.6288 44.706 26.9044 44.1774 27.4519C38.4424 33.3795 32.4808 39.1032 26.6136 44.9025C23.5214 46.6656 22.5284 42.0406 19.2664 42.2029C18.583 42.2369 15.8306 43.2148 15.1472 43.5697C13.637 44.355 13.0254 46.2164 11.1716 45.6614L2.43874 38.2348ZM11.0281 16.3291C13.7465 13.8448 16.2535 17.1786 17.1294 16.786C19.9007 14.7547 21.1655 10.3033 25.1185 10.7224C26.9874 10.9225 26.7231 12.1949 27.6632 12.8632C28.3541 13.354 29.4603 13.2558 30.1852 13.8448C31.0083 14.5093 30.8913 15.574 31.3557 16.1743C31.9295 16.9143 33.2887 16.9445 34.0287 18.1678C34.9047 19.6138 34.1533 20.5502 34.4403 21.2373C34.7272 21.9245 36.2979 22.5777 36.5319 23.8651C36.8491 25.6019 35.1123 27.3688 34.0665 28.6374C30.7591 32.6508 26.5683 36.3508 23.2458 40.4096C22.4982 41.4592 24.5068 43.128 25.4734 43.0336L45.5479 23.3856C52.8574 13.5465 44.7362 0.31325 32.6733 2.3747C29.5736 2.90328 27.7576 4.94207 25.1373 6.09739C23.8008 5.93504 23.1514 4.68156 22.064 4.06992C8.70238 -3.4774 -4.12316 12.1118 5.27795 23.5593C6.18031 23.7518 9.95208 17.307 11.0243 16.3291H11.0281ZM12.7196 42.8863C13.1688 42.4937 13.1764 41.7574 14.0976 41.3535C16.329 40.3831 19.9497 41.0514 21.9734 38.7219L34.1873 25.2432C34.546 24.0124 33.8437 23.2686 32.5752 23.6348C31.08 24.0652 27.1648 30.3779 25.9264 30.1514C24.5786 29.906 25.1562 28.7696 25.681 28.0446C27.4366 25.6207 30.2305 23.2761 32.0994 20.8485C32.5261 20.0896 32.4808 18.4887 31.3255 18.5038C29.6076 18.5265 24.3784 26.878 22.6983 27.0252L21.7922 26.4665C21.4335 25.0506 27.5348 19.2438 28.5957 17.7374C29.3773 15.827 28.1842 14.6112 26.4814 16.0195C24.8957 17.3296 20.8936 23.767 19.1946 23.9142L18.2847 23.3554C17.7977 21.445 25.1638 16.1403 25.2921 14.0147C25.3223 13.5201 25.1902 12.833 24.6956 12.6895C22.7436 12.1194 16.4913 22.1812 14.5771 22.0038C13.1386 21.8678 14.9471 19.225 14.4978 18.2433C13.9542 17.0578 13.3992 17.2541 12.4553 17.9488C11.6775 18.5227 6.69756 25.5226 6.2898 26.5646C5.11183 29.5813 6.05194 30.9933 5.74612 33.3757C5.59132 34.5726 4.11886 36.1734 4.30386 36.8983L11.2849 43.2148C11.7832 43.4715 12.3307 43.2148 12.7158 42.8825L12.7196 42.8863Z" fill="#D4AF37"/>
</g>
<defs>
<clipPath id="clip0_733_4296">
<rect width="50.43" height="45.7634" fill="white"/>
</clipPath>
</defs>
</svg>
