<svg width="21" height="22" viewBox="0 0 21 22" fill="none" xmlns="http://www.w3.org/2000/svg">
<path d="M1.00293 3.62262C1.00293 2.46516 1.94124 1.52686 3.0987 1.52686H6.53496C6.986 1.52686 7.38644 1.81547 7.52907 2.24337L9.0986 6.95197C9.26351 7.44669 9.03954 7.98738 8.57312 8.22059L6.20777 9.40327C7.3628 11.9651 9.42664 14.0289 11.9884 15.1839L13.1711 12.8186C13.4043 12.3521 13.945 12.1282 14.4397 12.2931L19.1483 13.8626C19.5762 14.0052 19.8648 14.4057 19.8648 14.8567V18.293C19.8648 19.4504 18.9265 20.3888 17.7691 20.3888H16.7212C8.04023 20.3888 1.00293 13.3515 1.00293 4.67051V3.62262Z" stroke="#E9E9E9" stroke-width="1.57183" stroke-linecap="round" stroke-linejoin="round"/>
</svg>
