<svg width="216" height="205" viewBox="0 0 216 205" fill="none" xmlns="http://www.w3.org/2000/svg">
<g clip-path="url(#clip0_40_24860)">
<path d="M161.778 17.6504C208.364 47.821 221.663 110.049 191.492 156.635C161.312 203.224 99.0859 216.533 52.4972 186.353" stroke="#CDAF4E" stroke-width="3"/>
<path d="M52.4962 186.352C50.804 185.253 49.1549 184.121 47.556 182.945" stroke="#CDAF4E" stroke-width="3" stroke-dasharray="4 12"/>
<path d="M38.2175 175.177C3.50024 142.551 -4.03378 88.7785 22.7915 47.3645C50.7517 4.19694 106.227 -10.3881 151.28 11.7041" stroke="#CDAF4E" stroke-width="3" stroke-dasharray="4 12"/>
<path d="M156.648 14.5416C158.382 15.5264 160.087 16.5601 161.78 17.6596" stroke="#CDAF4E" stroke-width="3" stroke-dasharray="4 12"/>
<path d="M107.136 186.87C154.009 186.87 192.006 148.872 192.006 102C192.006 55.1275 154.009 17.1299 107.136 17.1299C60.2637 17.1299 22.2661 55.1275 22.2661 102C22.2661 148.872 60.2637 186.87 107.136 186.87Z" fill="#CDAF4E"/>
<path d="M41.2367 155.47C70.7667 191.87 124.217 197.43 160.607 167.9L53.6667 36.1C17.2667 65.63 11.7067 119.08 41.2367 155.47Z" fill="#CDAF4E"/>
<path d="M52.0912 34.1588L50.15 35.734L51.7252 37.6753L158.675 169.475L160.25 171.416L162.192 169.841C199.664 139.441 205.388 84.4168 174.988 46.9547L174.237 46.03H174.217C143.667 9.39012 89.2429 4.01066 52.0912 34.1588Z" fill="#97A4B2" stroke="#03132F" stroke-width="5"/>
<path d="M107.136 169.34C144.327 169.34 174.476 139.191 174.476 102C174.476 64.8093 144.327 34.6602 107.136 34.6602C69.9455 34.6602 39.7964 64.8093 39.7964 102C39.7964 139.191 69.9455 169.34 107.136 169.34Z" fill="white"/>
<circle cx="206.258" cy="86" r="6.5" stroke="#D4AF37"/>
<circle cx="206.258" cy="86" r="5" fill="#D4AF37" stroke="#041B44" stroke-width="2"/>
</g>
<defs>
<clipPath id="clip0_40_24860">
<rect width="215.243" height="205" fill="white" transform="translate(0.0151367)"/>
</clipPath>
</defs>
</svg>
