<svg width="49" height="49" viewBox="0 0 49 49" fill="none" xmlns="http://www.w3.org/2000/svg">
<g clip-path="url(#clip0_733_4312)">
<path d="M24.7356 13.883C25.64 14.0432 25.8347 15.2186 26.3651 15.3865C27.0253 15.5964 27.8839 15.3522 28.5784 15.5468C31.3718 16.3291 32.0167 17.7067 33.8408 19.7216C35.3291 18.8706 40.4427 17.6456 41.2899 19.3858C41.3242 21.6449 39.5001 24.3391 37.2448 24.7932C35.2299 25.1977 32.135 24.1178 34.1805 27.6209C36.161 25.9686 38.6339 26.4647 41.0342 26.4914C41.6867 29.5175 39.8092 31.9408 36.8479 32.6467C35.7184 32.9139 34.3484 32.3262 33.5928 33.3298V41.1872L34.1843 41.7749H47.5674C47.9681 41.7749 48.3764 43.0075 48.155 43.3433C48.0673 43.4768 46.4111 43.7325 46.0104 43.7592C31.4978 44.8048 16.096 42.5953 1.49174 43.3662C0.243872 43.3624 -0.397233 42.603 0.724701 41.7749H6.62821C7.18918 41.4314 7.1701 40.9926 7.23879 40.4201C7.68909 36.5888 6.54426 31.0134 7.22734 27.4454C7.39906 26.5562 8.79194 25.5297 8.79194 25.0794V14.4706L9.38344 13.883C13.9628 14.4516 20.4005 13.1197 24.7356 13.883ZM24.1441 15.8444C24.1441 15.1537 11.5357 15.3216 10.368 15.8444V25.8617L10.9595 26.4494H20.4082C20.9691 26.7928 20.95 27.2317 21.0187 27.8041C21.263 29.8686 20.4807 41.1185 21.4461 41.7138L24.1441 41.7672V15.8444ZM31.2306 20.1643C31.5855 17.7296 28.4754 16.5008 26.5101 17.4205C26.5254 19.8475 29.189 20.439 31.2306 20.1643ZM36.6266 20.2482C35.7871 20.439 33.6424 22.0189 34.3636 23.1256C36.5579 24.3696 40.3778 21.4656 38.7178 20.3551C38.0576 20.0383 37.3173 20.0918 36.6266 20.2482ZM26.3498 20.9695L25.6973 21.9388C25.4912 23.9117 27.6855 23.1217 28.9753 23.4041C29.708 23.5644 31.7572 24.9077 32.0167 23.8964C32.7113 21.1984 27.9793 21.9044 26.3498 20.9695ZM27.1588 24.9382C24.6707 25.7358 29.7156 29.7541 31.2268 27.4187C31.6733 25.9228 28.4067 24.2895 27.1588 24.9382ZM19.4198 41.7749V28.6131L18.8283 28.0254H9.37962L8.78813 28.6131V41.7749H19.416H19.4198ZM39.1032 28.0254C36.9204 27.682 34.5888 28.5101 33.9859 30.7692C36.0962 31.4523 39.4429 30.7463 39.1032 28.0254ZM25.7202 29.0062V41.1834C27.1703 42.2213 30.2384 41.939 31.845 41.4047C32.1541 40.962 32.1885 31.5057 31.9366 30.6547C31.4138 28.8726 27.8343 30.1396 26.5216 28.5826L25.7202 29.0024V29.0062Z" fill="#D4AF37"/>
<path d="M47.2777 15.15C48.3271 16.23 48.308 23.6943 48.1134 25.4306C47.8692 27.6134 46.6824 30.8418 45.6788 32.8224C44.5263 35.0968 41.9428 36.9323 43.0418 39.4128L35.1692 41.3819C34.9326 38.6305 36.1232 36.0775 36.9361 33.5245C37.497 32.685 38.2755 34.2878 38.909 34.2382C39.4089 34.1962 41.2826 30.9983 41.607 30.3343C43.3929 26.6632 43.6867 23.6599 43.4196 19.5881C43.3471 18.4929 42.4198 16.2605 42.8129 15.4629C43.3815 14.3181 46.5717 14.4326 47.2701 15.1538L47.2777 15.15ZM40.1759 38.1306C40.4965 37.8024 40.5385 37.0888 40.8857 36.6881C45.3468 31.5593 47.3998 25.7054 46.5908 18.7829C46.4305 17.4244 45.1865 15.2759 45.0071 17.6076C44.8736 19.3668 45.4383 20.7292 45.4154 22.3052C45.362 25.6519 42.6068 34.0626 39.7104 35.8982C38.3862 36.7339 37.684 35.7837 37.2146 38.1268C36.8445 39.9661 39.7142 38.6076 40.1759 38.1344V38.1306Z" fill="#D4AF37"/>
<path d="M11.5449 12.7039L9.70937 11.975C4.34393 16.0277 4.08062 24.6445 5.63377 30.754L1.29868 30.9868C-0.907028 26.0106 -0.0560369 19.3439 2.03519 14.402C2.71827 12.7878 5.38573 9.30754 5.58035 8.47563C5.76352 7.69333 5.32848 7.14 5.24835 6.42257L13.514 4.45728L11.5449 12.7077V12.7039ZM11.1519 7.20487C8.67139 6.49126 6.53437 9.91812 5.32467 11.7956C2.07716 16.8329 0.27978 23.9156 2.69919 29.5939C4.34393 29.3497 3.2945 27.7851 3.26397 26.667C3.12278 21.3664 4.10352 13.8792 8.38518 10.1356C9.48422 9.17398 11.4228 9.71968 11.1557 7.20869L11.1519 7.20487Z" fill="#D4AF37"/>
<path d="M41.856 5.23567L43.8327 12.8946C43.8594 13.7876 36.3112 11.6963 35.5594 11.5208L36.1662 8.77701C30.7473 4.70905 24.3363 4.08702 17.8222 5.42647C16.6506 4.92656 16.9483 2.22095 17.4177 1.17915C22.5083 -0.801405 28.8393 -0.125955 33.8574 2.02633C35.4411 2.70559 38.9825 5.37686 39.7953 5.56767C40.6081 5.75847 41.1309 5.31962 41.8522 5.23948L41.856 5.23567ZM20.8941 1.79736C20.4286 1.88131 19.1273 2.26292 19.0281 2.69033C19.2227 4.23203 20.4591 3.28182 21.5696 3.25511C27.0419 3.12536 33.617 3.92675 37.7231 7.99089C39.013 9.26929 38.3642 10.6698 40.2723 10.9751C43.0428 11.4178 40.3677 8.21604 39.5014 7.39558C35.2045 3.31617 26.7022 0.751748 20.8941 1.79736Z" fill="#D4AF37"/>
<path d="M48.1563 48.06H0.722148C-0.430315 48.06 0.416859 46.6251 2.27149 46.4648C16.4712 45.2475 32.4111 47.4417 46.794 46.4648C47.9197 46.4419 48.3242 46.9609 48.1525 48.0561L48.1563 48.06Z" fill="#D4AF37"/>
</g>
<defs>
<clipPath id="clip0_733_4312">
<rect width="48.2165" height="48.06" fill="white"/>
</clipPath>
</defs>
</svg>
