<svg width="64" height="38" viewBox="0 0 64 38" fill="none" xmlns="http://www.w3.org/2000/svg">
<g clip-path="url(#clip0_40_320)">
<path d="M27.882 0.907434C43.5794 -0.751118 54.8498 7.65918 63.9391 19.2037C53.0084 33.3602 37.4546 41.9011 19.3672 34.9404C11.4401 31.8975 5.36744 24.976 0 18.6422C7.91404 10.036 15.4755 2.21338 27.882 0.907434ZM26.5499 2.82718C16.481 4.18536 9.06327 11.5378 2.61189 18.6422C14.1173 34.7314 33.3931 41.7444 50.8013 29.5338C52.3423 28.4498 60.9355 20.8623 61.2228 19.7261C61.4579 18.825 61.1183 18.5377 60.6743 17.8847C59.7601 16.5396 54.9412 11.9949 53.4655 10.7673C45.5253 4.13312 37.0105 1.42981 26.5499 2.82718Z" fill="#D4AF37"/>
<path d="M28.4959 5.41298C49.9787 1.78245 51.4936 31.8062 32.8186 33.1252C15.3711 34.3528 12.5503 8.11629 28.4959 5.41298ZM31.16 6.70587C14.4308 7.60697 16.7293 33.6084 34.1637 31.1532C48.3854 29.1551 47.1317 5.83089 31.16 6.70587Z" fill="#D4AF37"/>
<path d="M23.4565 18.8771C23.2214 16.3044 23.4696 14.5022 25.3762 12.6869C26.7736 11.3549 30.365 9.23923 31.919 11.4202C30.5347 12.8306 28.5889 12.2821 27.0217 13.6664C25.0236 15.4294 26.199 18.6943 23.4565 18.8771Z" fill="#D4AF37"/>
</g>
<defs>
<clipPath id="clip0_40_320">
<rect width="63.9391" height="36.7232" fill="white" transform="translate(0 0.698486)"/>
</clipPath>
</defs>
</svg>
