<svg width="26" height="26" viewBox="0 0 26 26" fill="none" xmlns="http://www.w3.org/2000/svg">
<g clip-path="url(#clip0_1063_1903)">
<path d="M25.0921 7.54486C25.0921 7.54486 24.8465 5.81094 24.09 5.04959C23.1322 4.04755 22.0614 4.04264 21.5702 3.98369C18.0532 3.72827 12.7729 3.72827 12.7729 3.72827H12.763C12.763 3.72827 7.4827 3.72827 3.96574 3.98369C3.47454 4.04264 2.40374 4.04755 1.44591 5.04959C0.689467 5.81094 0.448781 7.54486 0.448781 7.54486C0.448781 7.54486 0.193359 9.58332 0.193359 11.6169V13.5227C0.193359 15.5563 0.443869 17.5947 0.443869 17.5947C0.443869 17.5947 0.689467 19.3286 1.441 20.09C2.39883 21.092 3.65629 21.0576 4.21625 21.1657C6.23015 21.3573 12.768 21.4162 12.768 21.4162C12.768 21.4162 18.0532 21.4064 21.5702 21.1559C22.0614 21.0969 23.1322 21.092 24.09 20.09C24.8465 19.3286 25.0921 17.5947 25.0921 17.5947C25.0921 17.5947 25.3426 15.5612 25.3426 13.5227V11.6169C25.3426 9.58332 25.0921 7.54486 25.0921 7.54486ZM10.1695 15.8362V8.76794L16.9628 12.3144L10.1695 15.8362Z" fill="#E9E9E9"/>
</g>
<defs>
<clipPath id="clip0_1063_1903">
<rect width="25.1492" height="25.1492" fill="white" transform="translate(0.193359)"/>
</clipPath>
</defs>
</svg>
