<svg width="26" height="26" viewBox="0 0 26 26" fill="none" xmlns="http://www.w3.org/2000/svg">
<g clip-path="url(#clip0_733_1609)">
<path d="M25.2317 8.31097C25.2317 8.31097 24.9861 6.57705 24.2297 5.8157C23.2718 4.81366 22.201 4.80875 21.7098 4.74981C18.1929 4.49438 12.9125 4.49438 12.9125 4.49438H12.9027C12.9027 4.49438 7.62235 4.49438 4.10539 4.74981C3.61419 4.80875 2.54339 4.81366 1.58556 5.8157C0.829115 6.57705 0.588429 8.31097 0.588429 8.31097C0.588429 8.31097 0.333008 10.3494 0.333008 12.383V14.2888C0.333008 16.3224 0.583517 18.3608 0.583517 18.3608C0.583517 18.3608 0.829115 20.0947 1.58064 20.8561C2.53847 21.8581 3.79594 21.8238 4.3559 21.9318C6.3698 22.1234 12.9076 22.1823 12.9076 22.1823C12.9076 22.1823 18.1929 22.1725 21.7098 21.922C22.201 21.8631 23.2718 21.8581 24.2297 20.8561C24.9861 20.0947 25.2317 18.3608 25.2317 18.3608C25.2317 18.3608 25.4822 16.3273 25.4822 14.2888V12.383C25.4822 10.3494 25.2317 8.31097 25.2317 8.31097ZM10.3092 16.6024V9.53405L17.1024 13.0805L10.3092 16.6024Z" fill="#E9E9E9"/>
</g>
<defs>
<clipPath id="clip0_733_1609">
<rect width="25.1492" height="25.1492" fill="white" transform="translate(0.333008 0.766113)"/>
</clipPath>
</defs>
</svg>
